<svg width="65" height="49" viewBox="0 0 65 49" fill="none" xmlns="http://www.w3.org/2000/svg">
<g id="Frame" clip-path="url(#clip0_73_118479)">
<g id="Group">
<g id="objects">
<path id="Vector" d="M35.902 0C35.902 0 61.2167 4.63707 62.119 5.13798C63.0213 5.63889 64.5753 10.2267 64.5753 10.2267L62.9395 12.7564C62.9395 12.7564 63.8229 13.7268 63.9235 13.8934C64.0241 14.06 63.8732 17.5947 63.8732 17.5947L62.6702 19.0052C62.6702 19.0052 63.9738 19.722 64.0734 20.0479C64.1729 20.3738 60.9663 34.5585 60.5649 35.1097C60.1636 35.6609 51.0833 38.9692 51.0833 38.9692L30.7325 11.8782L35.902 0Z" fill="#00A1FF"/>
<path id="Vector_2" d="M24.7478 48.999C24.4104 48.9592 21.4626 47.8327 17.863 46.4044C11.7682 43.9763 3.79245 40.6785 3.41205 40.3296C2.97192 39.9251 1.6421 33.89 0.948377 30.6362C0.939994 30.6121 0.93685 30.5964 0.93685 30.5964C0.686396 29.4018 0.519775 28.5928 0.519775 28.5928L23.9629 36.8379C23.9629 36.8379 25.6574 49.0955 24.7489 49.0001L24.7478 48.999Z" fill="url(#paint0_linear_73_118479)"/>
<path id="Vector_3" d="M63.0747 20.0489C63.0747 20.0489 63.0433 20.1956 62.9909 20.4618C62.9825 20.4932 62.9752 20.5289 62.9668 20.5645C62.9584 20.6001 62.9511 20.6515 62.9395 20.707C62.3558 23.5207 60.0944 34.3961 59.8251 34.9284C59.6857 35.2061 54.4451 37.8333 47.8536 40.7538C47.8421 40.758 47.8337 40.7622 47.8263 40.7654C47.818 40.7696 47.8148 40.7737 47.8064 40.7769H47.8022C39.8862 44.2885 30.042 48.213 24.7479 48.9989L23.9619 36.8367C23.9619 36.8367 45.1269 29.1826 49.3448 27.1308C53.6025 25.059 63.0737 20.0479 63.0737 20.0479L63.0747 20.0489Z" fill="url(#paint1_linear_73_118479)"/>
<path id="Vector_4" d="M63.0747 20.0499C62.8955 19.2388 34.2064 14.0579 34.2064 14.0579C34.2064 14.0579 14.2434 22.3103 12.1958 23.4389C10.1576 24.5623 0.518738 28.5905 0.518738 28.5905C0.518738 28.5905 22.8626 36.669 23.963 36.8377C25.0622 37.0064 53.3814 27.595 63.0758 20.0499H63.0747Z" fill="url(#paint2_linear_73_118479)"/>
<path id="Vector_5" d="M63.2277 13.8935C62.84 13.1767 38.3971 7.44876 35.6914 7.92452C32.9909 8.39923 28.3726 16.7156 24.6494 19.48C20.9711 22.2109 7.37219 26.3408 7.37219 26.3408L24.5163 36.6367C24.5163 36.6367 40.4343 29.9205 48.5148 25.2991C56.7662 20.5803 63.2277 13.8935 63.2277 13.8935Z" fill="url(#paint3_linear_73_118479)"/>
<path id="Vector_6" d="M0.0272661 25.3189C3.92555 28.5968 16.8056 33.15 23.1299 33.98C24.839 34.2042 43.5204 26.4496 50.684 21.1911C58.0174 15.8079 62.4502 7.01786 62.1002 6.22773C61.748 5.43444 36.9971 0.149751 35.2617 0.00199309C33.5242 -0.145765 29.9267 7.95471 22.3774 13.3914C15.0021 18.7022 -0.749248 24.5539 0.0272661 25.3189Z" fill="url(#paint4_linear_73_118479)"/>
<path id="Vector_7" d="M62.1002 6.22778C62.1002 6.22778 63.233 9.16407 63.409 10.0464C63.584 10.9256 55.602 19.3185 50.3707 23.1843C45.2285 26.9841 24.357 36.7193 23.855 36.6365C23.3531 36.5537 23.1309 33.98 23.1309 33.98C23.1309 33.98 38.1236 28.9741 46.4483 23.8958C54.9648 18.7002 62.1012 6.22778 62.1012 6.22778H62.1002Z" fill="url(#paint5_linear_73_118479)"/>
<path id="Vector_8" d="M5.70703 26.39C5.70703 26.39 11.4947 25.0098 12.8623 20.399C12.8623 20.399 25.5202 16.7522 30.4046 9.4125C30.4046 9.4125 35.8381 8.40859 38.8006 3.09351L53.351 6.83775C53.351 6.83775 48.7255 12.638 50.005 17.6262C50.005 17.6262 41.2265 24.8474 29.7737 28.5917C29.7737 28.5917 24.9082 27.2755 19.5166 31.3655L5.70703 26.39Z" fill="url(#paint6_linear_73_118479)"/>
<path id="Vector_9" d="M0.0272827 25.3188C0.0272827 25.3188 0.249443 27.575 0.302887 28.0875C0.356332 28.5989 23.854 36.6354 23.854 36.6354L23.1299 33.9789C23.1299 33.9789 9.90923 31.3822 0.0272827 25.3188Z" fill="url(#paint7_linear_73_118479)"/>
<path id="Vector_10" d="M24.5162 36.6365C24.5162 36.6365 43.686 28.7173 50.5017 24.0446C57.462 19.2713 63.2277 13.8933 63.2277 13.8933C63.2277 13.8933 63.3283 16.8107 63.1491 17.0612C62.9699 17.3116 59.1775 21.0947 47.9049 27.2795C37.3366 33.0798 24.4848 38.4766 24.4848 38.4766L24.5162 36.6365Z" fill="url(#paint8_linear_73_118479)"/>
<path id="Vector_11" style="mix-blend-mode:multiply" d="M10.5139 19.9149C10.5139 19.9149 16.202 21.0729 23.854 23.3322C31.5059 25.5915 36.1692 28.9962 36.1692 28.9962L36.7141 28.8055C36.7141 28.8055 36.9352 27.5553 36.7141 27.4055C36.493 27.2556 12.3404 19.0063 12.3404 19.0063L10.5139 19.9159V19.9149Z" fill="url(#paint9_linear_73_118479)"/>
<path id="Vector_12" style="mix-blend-mode:multiply" opacity="0.5" d="M48.7842 26.7935C48.7842 26.7935 57.7282 21.7487 60.5996 19.2578L61.0659 19.3731C61.0659 19.3731 55.7277 24.2281 53.5858 25.6103C51.4428 26.9915 48.1345 28.3171 48.1345 28.3171L48.7842 26.7945V26.7935Z" fill="url(#paint10_linear_73_118479)"/>
<path id="Vector_13" style="mix-blend-mode:multiply" opacity="0.5" d="M49.0346 24.0865C49.0346 24.0865 53.6413 20.6661 56.0127 18.3512C58.3832 16.0363 61.1319 13.1367 61.1319 13.1367C61.1319 13.1367 58.5529 17.779 55.6879 20.2417C52.8218 22.7043 49.0346 24.9867 49.0346 24.9867V24.0855V24.0865Z" fill="url(#paint11_linear_73_118479)"/>
<path id="Vector_14" d="M47.1012 41.5147C46.9712 41.8542 38.351 46.4064 38.1142 46.4064C37.8773 46.4064 35.5153 45.8426 35.5153 45.8426L37.0432 45.239C37.0432 45.239 36.8734 28.5791 36.6209 27.7554C36.3631 26.9328 12.3404 19.0063 12.3404 19.0063L10.2425 20.051C10.2425 20.051 9.86835 16.9041 9.95847 16.6862C10.0528 16.4724 17.4679 15.0032 21.9048 10.2278C21.9048 10.2278 48.8208 19.0629 49.3899 19.765C49.9568 20.4608 47.2343 41.1793 47.1012 41.5157V41.5147Z" fill="url(#paint12_linear_73_118479)"/>
<path id="Vector_15" d="M40.6449 45.1477C41.2139 44.7181 42.0481 24.5769 41.7085 24.0299C41.368 23.4819 14.3042 15.1666 14.3042 15.1666C14.3042 15.1666 17.5297 13.8933 20.1066 11.8782C20.1066 11.8782 46.9031 20.686 47.1431 21.4321C47.382 22.1793 44.9728 42.8182 44.9728 42.8182L40.6449 45.1488V45.1477Z" fill="url(#paint13_linear_73_118479)"/>
<path id="Vector_16" style="mix-blend-mode:multiply" d="M35.5163 45.8415L37.0442 45.2379C37.0442 45.2379 36.8745 28.578 36.6219 27.7543C36.3641 26.9317 12.3414 19.0052 12.3414 19.0052L10.2435 20.05C10.2435 20.05 9.86939 16.903 9.95951 16.6851C9.95951 16.6851 37.345 25.4007 37.63 25.7391C38.4264 26.6844 38.0859 43.907 38.1142 46.4064C37.8773 46.4064 35.5153 45.8426 35.5153 45.8426L35.5163 45.8415Z" fill="url(#paint14_linear_73_118479)"/>
<path id="Vector_17" style="mix-blend-mode:multiply" opacity="0.6" d="M37.63 25.7392C37.63 25.7392 46.4745 22.2455 49.3909 20.05C49.3909 20.05 47.9825 36.71 47.1022 41.5147L38.1152 46.4065C38.1152 46.4065 38.0041 30.8185 37.6311 25.7392H37.63Z" fill="url(#paint15_linear_73_118479)"/>
<path id="Vector_18" style="mix-blend-mode:multiply" d="M26.4287 48.6793C26.4287 48.6793 34.6015 46.0375 35.9051 43.8819C37.2087 41.7264 36.8095 31.3645 36.8095 31.3645L31.3445 33.607C31.3445 33.607 34.9305 31.5845 35.6767 31.2177C36.4228 30.851 36.7162 28.8054 36.7162 28.8054C36.7162 28.8054 36.9164 35.684 36.9604 38.7429C37.0044 41.8018 37.0453 45.2401 37.0453 45.2401C37.0453 45.2401 30.261 47.9395 26.4308 48.6804L26.4287 48.6793Z" fill="url(#paint16_linear_73_118479)"/>
<path id="Vector_19" style="mix-blend-mode:multiply" opacity="0.5" d="M62.9395 20.707C62.3558 23.5207 60.0944 34.3961 59.8251 34.9284C59.6857 35.2061 54.445 37.8333 47.8536 40.7539C48.5201 40.4164 55.7183 36.7539 58.337 33.2266C60.8133 29.89 62.6105 22.1794 62.9395 20.7081V20.707Z" fill="url(#paint17_linear_73_118479)"/>
<path id="Vector_20" d="M1.30261 26.0723C1.30261 26.0723 12.9021 31.29 19.4275 32.1409C25.953 32.9928 32.4197 30.5438 32.4197 30.5438C32.4197 30.5438 23.8624 34.0146 23.1299 33.98C22.3974 33.9454 9.10338 30.8666 1.30261 26.0713V26.0723Z" fill="#A4FF5A"/>
<path id="Vector_21" style="mix-blend-mode:multiply" opacity="0.5" d="M17.8756 46.4044H17.864C11.7693 43.9763 3.79354 40.6785 3.41314 40.3296C2.97301 39.9251 1.64319 33.89 0.949463 30.6362C1.1318 31.1801 3.09981 37.0443 5.43354 39.6232C7.8815 42.329 17.8766 46.4044 17.8766 46.4044H17.8756Z" fill="url(#paint18_linear_73_118479)"/>
<path id="Vector_22" d="M0.5177 28.5906C0.5177 28.5906 14.9047 35.3109 23.9619 36.8378L0.5177 28.5906Z" fill="#4AA449"/>
<path id="Vector_23" d="M16.4535 18.76C16.4535 18.76 28.4198 22.367 32.4197 23.4579C36.4196 24.5477 40.4793 24.5624 40.4793 24.5624C40.4793 24.5624 38.0355 25.9153 37.63 25.7392C37.2244 25.5642 16.4535 18.76 16.4535 18.76Z" fill="white"/>
<g id="Vector_24" style="mix-blend-mode:multiply" opacity="0.3">
<path d="M50.3246 33.3072C50.3225 35.7656 53.5008 35.4659 53.7565 33.8427C54.0122 32.2194 50.3277 29.4445 50.3246 33.3072Z" fill="#EDA78B"/>
</g>
<g id="Vector_25" style="mix-blend-mode:multiply" opacity="0.3">
<path d="M57.1613 25.6564C54.2732 25.3357 52.2517 31.2429 55.493 32.6177C58.7332 33.9926 59.3986 25.9047 57.1613 25.6564Z" fill="#EDA78B"/>
</g>
</g>
</g>
</g>
<defs>
<linearGradient id="paint0_linear_73_118479" x1="12.7669" y1="49.0001" x2="12.7669" y2="28.5917" gradientUnits="userSpaceOnUse">
<stop stop-color="#42863B"/>
<stop offset="0.45" stop-color="#3F8A43"/>
<stop offset="1" stop-color="#3E8D48"/>
</linearGradient>
<linearGradient id="paint1_linear_73_118479" x1="43.5183" y1="48.9989" x2="43.5183" y2="20.0489" gradientUnits="userSpaceOnUse">
<stop stop-color="#447027"/>
<stop offset="0.47" stop-color="#3A742B"/>
<stop offset="1" stop-color="#36772E"/>
</linearGradient>
<linearGradient id="paint2_linear_73_118479" x1="0.431575" y1="26.8119" x2="63.251" y2="23.8275" gradientUnits="userSpaceOnUse">
<stop stop-color="#206027"/>
<stop offset="0.29" stop-color="#226236"/>
<stop offset="0.65" stop-color="#246542"/>
<stop offset="1" stop-color="#256647"/>
</linearGradient>
<linearGradient id="paint3_linear_73_118479" x1="36.0563" y1="36.0891" x2="34.7199" y2="7.95989" gradientUnits="userSpaceOnUse">
<stop stop-color="#206027"/>
<stop offset="0.29" stop-color="#226236"/>
<stop offset="0.65" stop-color="#246542"/>
<stop offset="1" stop-color="#256647"/>
</linearGradient>
<linearGradient id="paint4_linear_73_118479" x1="31.7434" y1="33.7231" x2="30.7056" y2="0.139491" gradientUnits="userSpaceOnUse">
<stop stop-color="#88E55A"/>
<stop offset="0.06" stop-color="#86E358"/>
<stop offset="0.53" stop-color="#7FDA4C"/>
<stop offset="1" stop-color="#7DD848"/>
</linearGradient>
<linearGradient id="paint5_linear_73_118479" x1="43.8809" y1="36.0195" x2="42.9786" y2="6.81934" gradientUnits="userSpaceOnUse">
<stop stop-color="#447027"/>
<stop offset="0.47" stop-color="#3A742B"/>
<stop offset="1" stop-color="#36772E"/>
</linearGradient>
<linearGradient id="paint6_linear_73_118479" x1="29.5295" y1="31.3645" x2="29.5295" y2="3.09351" gradientUnits="userSpaceOnUse">
<stop stop-color="#C2FF5A"/>
<stop offset="0.05" stop-color="#BEFE58"/>
<stop offset="0.37" stop-color="#AAFE4F"/>
<stop offset="0.68" stop-color="#9EFE49"/>
<stop offset="1" stop-color="#9AFE48"/>
</linearGradient>
<linearGradient id="paint7_linear_73_118479" x1="12.1821" y1="36.998" x2="11.81" y2="24.9557" gradientUnits="userSpaceOnUse">
<stop stop-color="#42863B"/>
<stop offset="0.45" stop-color="#3F8A43"/>
<stop offset="1" stop-color="#3E8D48"/>
</linearGradient>
<linearGradient id="paint8_linear_73_118479" x1="44.3928" y1="37.5309" x2="43.3148" y2="14.8416" gradientUnits="userSpaceOnUse">
<stop stop-color="#447027"/>
<stop offset="0.47" stop-color="#3A742B"/>
<stop offset="1" stop-color="#36772E"/>
</linearGradient>
<linearGradient id="paint9_linear_73_118479" x1="23.6643" y1="28.9962" x2="23.6643" y2="19.0053" gradientUnits="userSpaceOnUse">
<stop stop-color="#756F31"/>
<stop offset="0.17" stop-color="#82785D"/>
<stop offset="0.47" stop-color="#9887A2"/>
<stop offset="0.71" stop-color="#A792D4"/>
<stop offset="0.9" stop-color="#B199F3"/>
<stop offset="1" stop-color="#B59CFF"/>
</linearGradient>
<linearGradient id="paint10_linear_73_118479" x1="54.6012" y1="28.3161" x2="54.6012" y2="19.2578" gradientUnits="userSpaceOnUse">
<stop stop-color="#756F31"/>
<stop offset="0.17" stop-color="#82785D"/>
<stop offset="0.47" stop-color="#9887A2"/>
<stop offset="0.71" stop-color="#A792D4"/>
<stop offset="0.9" stop-color="#B199F3"/>
<stop offset="1" stop-color="#B59CFF"/>
</linearGradient>
<linearGradient id="paint11_linear_73_118479" x1="55.0832" y1="24.9877" x2="55.0832" y2="13.1378" gradientUnits="userSpaceOnUse">
<stop stop-color="#756F31"/>
<stop offset="0.17" stop-color="#82785D"/>
<stop offset="0.47" stop-color="#9887A2"/>
<stop offset="0.71" stop-color="#A792D4"/>
<stop offset="0.9" stop-color="#B199F3"/>
<stop offset="1" stop-color="#B59CFF"/>
</linearGradient>
<linearGradient id="paint12_linear_73_118479" x1="29.7066" y1="46.4064" x2="29.7066" y2="10.2267" gradientUnits="userSpaceOnUse">
<stop stop-color="#FFC9EC"/>
<stop offset="0.22" stop-color="#FFD4F1"/>
<stop offset="0.68" stop-color="#FFE8FB"/>
<stop offset="1" stop-color="#FFEFFF"/>
</linearGradient>
<linearGradient id="paint13_linear_73_118479" x1="30.7325" y1="45.1477" x2="30.7325" y2="11.8782" gradientUnits="userSpaceOnUse">
<stop stop-color="#B80079"/>
<stop offset="1" stop-color="#FB0996"/>
</linearGradient>
<linearGradient id="paint14_linear_73_118479" x1="24.0541" y1="46.4064" x2="24.0541" y2="16.6851" gradientUnits="userSpaceOnUse">
<stop stop-color="#CC798E"/>
<stop offset="0.38" stop-color="#C46D86"/>
<stop offset="1" stop-color="#B45276"/>
</linearGradient>
<linearGradient id="paint15_linear_73_118479" x1="43.5099" y1="46.4065" x2="43.5099" y2="20.05" gradientUnits="userSpaceOnUse">
<stop stop-color="#B45276"/>
<stop offset="0.27" stop-color="#BB658A"/>
<stop offset="0.74" stop-color="#C782A9"/>
<stop offset="1" stop-color="#CC8DB5"/>
</linearGradient>
<linearGradient id="paint16_linear_73_118479" x1="31.7365" y1="48.6793" x2="31.7365" y2="28.8044" gradientUnits="userSpaceOnUse">
<stop stop-color="#756F31"/>
<stop offset="0.17" stop-color="#82785D"/>
<stop offset="0.47" stop-color="#9887A2"/>
<stop offset="0.71" stop-color="#A792D4"/>
<stop offset="0.9" stop-color="#B199F3"/>
<stop offset="1" stop-color="#B59CFF"/>
</linearGradient>
<linearGradient id="paint17_linear_73_118479" x1="55.3966" y1="40.7539" x2="55.3966" y2="20.707" gradientUnits="userSpaceOnUse">
<stop stop-color="#756F31"/>
<stop offset="0.17" stop-color="#82785D"/>
<stop offset="0.47" stop-color="#9887A2"/>
<stop offset="0.71" stop-color="#A792D4"/>
<stop offset="0.9" stop-color="#B199F3"/>
<stop offset="1" stop-color="#B59CFF"/>
</linearGradient>
<linearGradient id="paint18_linear_73_118479" x1="0.947367" y1="38.5198" x2="17.8756" y2="38.5198" gradientUnits="userSpaceOnUse">
<stop stop-color="#756F31"/>
<stop offset="0.17" stop-color="#82785D"/>
<stop offset="0.47" stop-color="#9887A2"/>
<stop offset="0.71" stop-color="#A792D4"/>
<stop offset="0.9" stop-color="#B199F3"/>
<stop offset="1" stop-color="#B59CFF"/>
</linearGradient>
<clipPath id="clip0_73_118479">
<rect width="64.5753" height="49" fill="white"/>
</clipPath>
</defs>
</svg>
