<svg width="40" height="49" viewBox="0 0 40 49" fill="none" xmlns="http://www.w3.org/2000/svg">
<g id="Frame" clip-path="url(#clip0_73_118507)">
<g id="Group">
<g id="layer1">
<path id="Vector" d="M5.05835 16.3574C-4.75283 26.9734 -0.822766 50.9931 21.5295 48.8683C40.9541 47.0231 42.2642 26.2185 35.4804 16.9345C29.124 8.23568 13.4257 7.30508 5.05835 16.3574Z" fill="url(#paint0_linear_73_118507)"/>
<path id="Vector_2" d="M35.145 39.8959L35.139 39.9019C32.5888 43.838 28.2913 46.8274 21.7013 47.4585C15.0972 48.0835 10.1367 46.4081 6.70592 43.4825C6.69993 43.4685 6.68595 43.4625 6.67996 43.4625C6.64002 43.4306 6.60208 43.3966 6.56214 43.3647C-1.05436 36.7227 -0.942531 23.8701 5.57563 16.8208C13.6454 8.08794 28.5669 9.14634 34.9073 17.3719C38.6257 22.1946 39.8419 32.6489 35.143 39.8959H35.145Z" fill="url(#paint1_linear_73_118507)"/>
<path id="Vector_3" d="M10.4922 20.1756C3.70445 26.8095 6.33647 43.089 21.0143 41.723C33.4575 40.5648 34.0666 26.8335 30.4201 21.5695C26.3922 15.7542 16.2795 14.5181 10.4902 20.1756H10.4922Z" fill="url(#paint2_linear_73_118507)"/>
<path id="Vector_4" d="M12.2116 20.1775C5.4518 25.5394 6.30651 40.5048 19.7063 40.6466C31.0651 40.7664 32.9023 28.4071 30.1006 23.3068C27.0052 17.6713 17.9769 15.6064 12.2116 20.1775Z" fill="url(#paint3_linear_73_118507)"/>
<g id="Vector_5" style="mix-blend-mode:multiply" opacity="0.5">
<path d="M7.24707 26.3463C8.96248 23.0793 13.4896 18.5341 19.9179 18.5341C26.3462 18.5341 31.9937 24.613 32.2853 27.1871C31.9538 19.7583 25.6093 16.5132 19.4846 16.5132C13.3598 16.5132 7.89809 20.8966 7.24707 26.3463Z" fill="#AB0081"/>
</g>
<g id="Vector_6" style="mix-blend-mode:multiply" opacity="0.5">
<path d="M19.6663 18.5361C21.6173 18.5361 24.2953 24.4512 24.2953 24.4512C24.2953 24.4512 31.097 25.0223 31.6981 26.7677C32.3012 28.5151 27.155 32.7407 27.155 32.7407C27.155 32.7407 28.6807 38.6837 27.103 39.7621C25.5254 40.8424 19.6543 38.3522 19.6543 38.3522C19.6543 38.3522 13.8091 40.8424 12.2315 39.7621C10.6539 38.6817 12.1796 32.7407 12.1796 32.7407C12.1796 32.7407 7.03334 28.5151 7.63643 26.7677C8.23952 25.0203 15.0392 24.4512 15.0392 24.4512C15.0392 24.4512 17.7172 18.5361 19.6683 18.5361H19.6663Z" fill="#AB0081"/>
</g>
<path id="Vector_7" d="M19.6663 16.8765C21.6174 16.8765 24.2953 23.157 24.2953 23.157C24.2953 23.157 31.097 23.7621 31.6981 25.6173C32.3012 27.4725 27.155 31.9597 27.155 31.9597C27.155 31.9597 28.6807 38.6156 27.1031 39.7619C25.5255 40.9082 19.6663 37.4015 19.6663 37.4015C19.6663 37.4015 13.8092 40.9082 12.2295 39.7619C10.6519 38.6156 12.1776 31.9597 12.1776 31.9597C12.1776 31.9597 7.03139 27.4725 7.63448 25.6173C8.23757 23.7621 15.0373 23.157 15.0373 23.157C15.0373 23.157 17.7153 16.8765 19.6663 16.8765Z" fill="url(#paint4_linear_73_118507)"/>
<g id="Vector_8" style="mix-blend-mode:soft-light" opacity="0.5">
<path d="M0.451279 30.0548C0.876636 32.2435 6.49016 34.7197 6.93748 34.7297C7.38481 34.7397 4.07181 26.1387 10.8735 19.6085C17.6753 13.0784 28.1594 17.1702 31.2588 22.8856C34.3581 28.599 31.786 34.6578 31.744 35.4047C31.7021 36.1515 36.9621 33.3478 38.1064 30.9234C39.2507 28.5011 39.2547 10.4983 20.6628 10.4983C2.07083 10.4983 -0.0978919 27.225 0.451279 30.0548Z" fill="#F6F4EA"/>
</g>
<g id="Vector_9" style="mix-blend-mode:soft-light" opacity="0.5">
<path d="M35.1389 39.9038C32.5887 43.8399 28.2912 46.8293 21.7012 47.4604C15.0971 48.0855 10.1366 46.41 6.70581 43.4844C7.54055 44.1214 12.0218 47.2767 19.4466 47.4344C27.5543 47.5982 34.8553 40.1934 35.1369 39.9038H35.1389Z" fill="#F6F4EA"/>
</g>
<g id="Vector_10" style="mix-blend-mode:soft-light" opacity="0.8">
<path d="M23.6363 10.5003C19.2349 9.66159 25.7072 15.984 29.8789 20.7768C34.0506 25.5696 38.2063 26.0049 38.2063 26.0049C38.2063 26.0049 39.6162 13.5437 23.6363 10.4983V10.5003Z" fill="#FFFFEA"/>
</g>
<g id="Vector_11" style="mix-blend-mode:soft-light" opacity="0.8">
<path d="M17.821 18.2146C16.1516 20.8586 14.8515 24.7128 21.3497 29.1261C26.474 32.6069 30.7136 28.8985 31.6961 26.7677C32.6786 24.6369 24.3891 23.4128 24.3891 23.4128C24.3891 23.4128 21.9947 18.6859 20.4571 17.4777C18.9194 16.2715 17.8191 18.2146 17.8191 18.2146H17.821Z" fill="#FFFFEA"/>
</g>
<g id="Vector_12" style="mix-blend-mode:soft-light" opacity="0.8">
<path d="M4.27956 40.8963C3.38491 38.7795 8.92454 40.5349 11.265 43.746C13.6055 46.9572 6.25657 45.5773 4.27956 40.8963Z" fill="#FFE052"/>
</g>
<g id="Vector_13" style="mix-blend-mode:soft-light">
<path d="M18.0147 25.7012C17.7811 24.3313 20.8844 25.4735 21.4655 26.8834C22.0466 28.2953 18.4641 28.3352 18.0147 25.7012Z" fill="#FFFFEA"/>
</g>
<g id="Vector_14" style="mix-blend-mode:multiply" opacity="0.33">
<path d="M11.5726 30.2724C12.4273 28.3672 20.9983 29.1281 24.6508 31.5604C28.3033 33.9927 27.2409 38.452 26.7676 38.7835C25.0762 39.9697 20.0857 36.475 20.0857 36.475C20.0857 36.475 14.7418 39.1709 12.8247 38.7835C10.9076 38.3961 12.8666 32.1156 12.8666 32.1156C12.8666 32.1156 11.3669 30.7357 11.5745 30.2724H11.5726Z" fill="#FF8D81"/>
</g>
<g id="Vector_15" style="mix-blend-mode:multiply" opacity="0.33">
<path d="M15.9339 46.6137C11.8181 45.3835 17.5874 44.7285 25.3517 40.6487C33.116 36.5688 35.2148 37.8549 35.6881 37.9727C36.1614 38.0905 32.1754 44.5588 25.811 45.9966C19.4466 47.4344 15.9339 46.6137 15.9339 46.6137Z" fill="#FF8D81"/>
</g>
<path id="Vector_16" d="M13.4517 40.5569C13.4517 40.5569 14.3623 40.8245 18.2364 40.6467C22.1106 40.469 25.3936 40.6228 25.6153 40.5089C25.837 40.3951 20.3393 43.4984 13.4517 40.5569Z" fill="#FFB551"/>
<g id="Vector_17" style="mix-blend-mode:multiply" opacity="0.3">
<path d="M35.9357 29.9668C35.9297 31.3427 35.4505 32.5209 34.7535 32.0476C33.9208 31.4825 32.8644 31.113 32.9802 29.845C33.0022 29.6233 33.0141 29.3876 33.0361 29.15C33.128 28.0397 33.2897 26.9154 34.3701 27.2449C34.3701 27.2449 35.6761 27.5364 35.8898 29.1899C35.9257 29.4476 35.9397 29.7112 35.9357 29.9648V29.9668Z" fill="#C9455B"/>
</g>
<g id="Vector_18" style="mix-blend-mode:multiply" opacity="0.5">
<path d="M35.9357 29.9668L35.9057 30.1325C35.9057 30.1325 35.9017 29.2818 35.5083 28.5709C35.1149 27.8659 34.5757 27.3168 33.9207 27.6163C33.2697 27.9199 33.0341 29.15 33.0341 29.15C33.1259 28.0397 33.2877 26.9154 34.368 27.2449C34.368 27.2449 35.6741 27.5364 35.8877 29.1899C35.9237 29.4476 35.9377 29.7112 35.9337 29.9648L35.9357 29.9668Z" fill="#C9455B"/>
</g>
<g id="Vector_19" style="mix-blend-mode:multiply" opacity="0.3">
<path d="M4.06786 37.2517C4.2416 38.1264 4.07186 38.9411 3.54665 38.7375C2.9176 38.4958 2.16274 38.4079 2.07687 37.5872C2.06289 37.4434 2.04093 37.2916 2.02495 37.1379C1.94307 36.421 1.90713 35.6841 2.67197 35.742C2.67197 35.742 3.5826 35.744 3.93806 36.7644C3.99398 36.9242 4.03791 37.0879 4.06986 37.2497L4.06786 37.2517Z" fill="#C9455B"/>
</g>
<g id="Vector_20" style="mix-blend-mode:multiply" opacity="0.5">
<path d="M4.06791 37.2519V37.3617C4.06791 37.3617 3.95807 36.8225 3.60261 36.4271C3.24915 36.0337 2.8178 35.7621 2.4184 36.0437C2.023 36.3272 2.023 37.142 2.023 37.142C1.94112 36.4251 1.90517 35.6882 2.67002 35.7461C2.67002 35.7461 3.58064 35.7481 3.93611 36.7686C3.99202 36.9283 4.03596 37.0921 4.06791 37.2538V37.2519Z" fill="#C9455B"/>
</g>
<path id="Vector_21" d="M38.3561 32.471C37.9807 31.6522 35.3487 34.6197 36.2054 36.9782C37.0621 39.3386 39.1709 34.2503 38.3561 32.471Z" fill="#C94027"/>
<g id="Vector_22" style="mix-blend-mode:multiply" opacity="0.5">
<path d="M36.6127 33.8869C35.6402 35.9798 37.3776 36.6328 38.2363 34.9273C39.095 33.2219 38.0985 32.2873 37.9088 32.4012C37.7191 32.517 36.8724 33.3298 36.6127 33.8849V33.8869Z" fill="#AF5B66"/>
</g>
<path id="Vector_23" d="M36.3392 37.2659C36.0356 36.0337 37.8509 36.0916 38.1165 35.7502C38.3821 35.4107 36.9103 38.5899 36.3392 37.2659Z" fill="#FFB551"/>
<path id="Vector_24" d="M18.0028 10.0948C17.216 10.1907 16.5989 2.37048 17.0143 1.29211C17.4297 0.213741 21.833 -0.367382 22.4541 0.255678C23.0751 0.87674 22.3263 9.9111 22.1665 9.977C22.0048 10.0429 18.0048 10.0948 18.0048 10.0948H18.0028Z" fill="url(#paint5_linear_73_118507)"/>
<g id="Vector_25" style="mix-blend-mode:soft-light" opacity="0.6">
<path d="M17.3877 1.25007C17.0482 1.6974 16.9244 5.87709 18.0027 7.62045C19.0811 9.36382 21.815 7.90003 22.1645 6.89355C22.5139 5.88707 22.5838 1.20814 22.1645 0.377392C21.7451 -0.453353 18.1765 0.211642 17.3877 1.24808V1.25007Z" fill="#FFFFEA"/>
</g>
<g id="Vector_26" style="mix-blend-mode:multiply" opacity="0.5">
<path d="M18.0028 10.0947C17.2819 10.0727 17.8511 9.06227 19.6004 8.43123C21.3498 7.80018 22.3902 8.43322 22.3043 9.10022C22.2165 9.76721 22.2704 10.2245 18.0028 10.0947Z" fill="#AB0081"/>
</g>
<g id="Vector_27" style="mix-blend-mode:soft-light">
<path d="M20.0038 0.545122C19.822 0.966485 20.7267 2.56807 21.3497 2.9415C21.9728 3.31494 22.5419 0.826697 21.8789 0.451264C21.2159 0.0758305 20.2454 -0.0160308 20.0038 0.545122Z" fill="#FFFFEA"/>
</g>
</g>
</g>
</g>
<defs>
<linearGradient id="paint0_linear_73_118507" x1="19.6004" y1="49.0001" x2="19.6004" y2="9.97705" gradientUnits="userSpaceOnUse">
<stop offset="0.01" stop-color="#D12C2E"/>
<stop offset="0.35" stop-color="#EB7A1D"/>
<stop offset="0.42" stop-color="#F38A1D"/>
<stop offset="0.51" stop-color="#FA961E"/>
<stop offset="0.64" stop-color="#FD9D1E"/>
<stop offset="1" stop-color="#FF9F1F"/>
</linearGradient>
<linearGradient id="paint1_linear_73_118507" x1="19.4846" y1="47.5903" x2="19.4846" y2="10.722" gradientUnits="userSpaceOnUse">
<stop offset="0.01" stop-color="#FE686A"/>
<stop offset="0.35" stop-color="#EB7A1D"/>
<stop offset="0.42" stop-color="#F38A1D"/>
<stop offset="0.51" stop-color="#FA961E"/>
<stop offset="0.64" stop-color="#FD9D1E"/>
<stop offset="1" stop-color="#FF9F1F"/>
</linearGradient>
<linearGradient id="paint2_linear_73_118507" x1="20.972" y1="41.7271" x2="18.3648" y2="16.588" gradientUnits="userSpaceOnUse">
<stop offset="0.01" stop-color="#FEA740"/>
<stop offset="0.35" stop-color="#E8771E"/>
<stop offset="0.41" stop-color="#D46228"/>
<stop offset="0.48" stop-color="#C45130"/>
<stop offset="0.56" stop-color="#B94536"/>
<stop offset="0.68" stop-color="#B23E3A"/>
<stop offset="1" stop-color="#B13D3B"/>
</linearGradient>
<linearGradient id="paint3_linear_73_118507" x1="19.6629" y1="40.6508" x2="19.6648" y2="17.6765" gradientUnits="userSpaceOnUse">
<stop offset="0.01" stop-color="#FE5433"/>
<stop offset="0.35" stop-color="#EB7A1D"/>
<stop offset="0.42" stop-color="#F38A1D"/>
<stop offset="0.51" stop-color="#FA961E"/>
<stop offset="0.64" stop-color="#FD9D1E"/>
<stop offset="1" stop-color="#FF9F1F"/>
</linearGradient>
<linearGradient id="paint4_linear_73_118507" x1="19.6663" y1="39.9916" x2="19.6663" y2="16.8765" gradientUnits="userSpaceOnUse">
<stop offset="0.01" stop-color="#FE816A"/>
<stop offset="0.35" stop-color="#FA8C1D"/>
<stop offset="0.4" stop-color="#FB9C1D"/>
<stop offset="0.46" stop-color="#FDAD1E"/>
<stop offset="0.55" stop-color="#FEB91E"/>
<stop offset="0.67" stop-color="#FEC01E"/>
<stop offset="1" stop-color="#FFC21F"/>
</linearGradient>
<linearGradient id="paint5_linear_73_118507" x1="16.8805" y1="5.04844" x2="22.6937" y2="5.04844" gradientUnits="userSpaceOnUse">
<stop offset="0.01" stop-color="#FE686A"/>
<stop offset="0.16" stop-color="#EB7A1D"/>
<stop offset="0.44" stop-color="#F68E1E"/>
<stop offset="0.73" stop-color="#FC9A1E"/>
<stop offset="1" stop-color="#FF9F1F"/>
</linearGradient>
<clipPath id="clip0_73_118507">
<rect width="39.2008" height="49" fill="white"/>
</clipPath>
</defs>
</svg>
