<svg xmlns="http://www.w3.org/2000/svg" width="17" height="21" viewBox="0 0 17 21" fill="none">
  <path d="M2.1935 7.01022C-2.06126 11.5599 -0.356934 21.8541 9.33644 20.9435C17.7602 20.1527 18.3283 11.2364 15.3865 7.25756C12.6299 3.52947 5.82213 3.13065 2.1935 7.01022Z" fill="url(#paint0_linear_56_27863)"/>
  <path d="M15.241 17.0983L15.2384 17.1008C14.1325 18.7877 12.2688 20.0689 9.41093 20.3394C6.54699 20.6073 4.3958 19.8892 2.90797 18.6354C2.90537 18.6294 2.89931 18.6268 2.89671 18.6268C2.87939 18.6131 2.86294 18.5986 2.84562 18.5849C-0.457387 15.7383 -0.408889 10.2301 2.4178 7.20893C5.9174 3.4663 12.3883 3.9199 15.1379 7.44514C16.7505 9.51202 17.2779 13.9924 15.2401 17.0983H15.241Z" fill="url(#paint1_linear_56_27863)"/>
  <path d="M4.54994 8.64681C1.60633 11.4899 2.74775 18.4668 9.11301 17.8814C14.5092 17.385 14.7733 11.5002 13.192 9.24419C11.4452 6.75196 7.05967 6.22218 4.54907 8.64681H4.54994Z" fill="url(#paint2_linear_56_27863)"/>
  <path d="M5.29559 8.64765C2.36411 10.9456 2.73477 17.3593 8.54577 17.4201C13.4717 17.4715 14.2684 12.1746 13.0534 9.98877C11.7111 7.57356 7.7958 6.68861 5.29559 8.64765Z" fill="url(#paint3_linear_56_27863)"/>
  <g style="mix-blend-mode:multiply" opacity="0.5">
    <path d="M3.14265 11.2914C3.88657 9.89118 5.84984 7.94327 8.63756 7.94327C11.4253 7.94327 13.8744 10.5485 14.0008 11.6517C13.8571 8.46791 11.1057 7.07715 8.44963 7.07715C5.79355 7.07715 3.42498 8.95574 3.14265 11.2914Z" fill="#AB0081"/>
  </g>
  <g style="mix-blend-mode:multiply" opacity="0.5">
    <path d="M8.52845 7.94409C9.37455 7.94409 10.5359 10.4791 10.5359 10.4791C10.5359 10.4791 13.4856 10.7239 13.7462 11.4719C14.0078 12.2208 11.776 14.0318 11.776 14.0318C11.776 14.0318 12.4377 16.5788 11.7535 17.0409C11.0694 17.5039 8.52325 16.4367 8.52325 16.4367C8.52325 16.4367 5.98841 17.5039 5.30425 17.0409C4.62009 16.5779 5.28174 14.0318 5.28174 14.0318C5.28174 14.0318 3.05 12.2208 3.31154 11.4719C3.57307 10.723 6.52188 10.4791 6.52188 10.4791C6.52188 10.4791 7.68321 7.94409 8.52931 7.94409H8.52845Z" fill="#AB0081"/>
  </g>
  <path d="M8.52845 7.23291C9.37455 7.23291 10.5359 9.92456 10.5359 9.92456C10.5359 9.92456 13.4856 10.1839 13.7462 10.979C14.0078 11.7741 11.776 13.6971 11.776 13.6971C11.776 13.6971 12.4377 16.5497 11.7535 17.041C11.0694 17.5322 8.52845 16.0293 8.52845 16.0293C8.52845 16.0293 5.98841 17.5322 5.30338 17.041C4.61923 16.5497 5.28087 13.6971 5.28087 13.6971C5.28087 13.6971 3.04913 11.7741 3.31067 10.979C3.57221 10.1839 6.52101 9.92456 6.52101 9.92456C6.52101 9.92456 7.68234 7.23291 8.52845 7.23291Z" fill="url(#paint4_linear_56_27863)"/>
  <g style="mix-blend-mode:soft-light" opacity="0.5">
    <path d="M0.195591 12.8806C0.380054 13.8186 2.81444 14.8799 3.00843 14.8842C3.20242 14.8884 1.76569 11.2023 4.71536 8.40366C7.66503 5.60503 12.2116 7.35866 13.5557 9.80811C14.8998 12.2567 13.7843 14.8533 13.7661 15.1734C13.748 15.4935 16.0291 14.2919 16.5253 13.2529C17.0215 12.2148 17.0233 4.49927 8.96059 4.49927C0.897935 4.49927 -0.0425644 11.6679 0.195591 12.8806Z" fill="#F6F4EA"/>
  </g>
  <g style="mix-blend-mode:soft-light" opacity="0.5">
    <path d="M15.2384 17.1016C14.1325 18.7884 12.2688 20.0697 9.41093 20.3401C6.547 20.608 4.3958 19.8899 2.90797 18.6361C3.26997 18.9091 5.21332 20.2614 8.43319 20.329C11.9492 20.3992 15.1154 17.2257 15.2375 17.1016H15.2384Z" fill="#F6F4EA"/>
  </g>
  <g style="mix-blend-mode:soft-light" opacity="0.8">
    <path d="M10.2501 4.50014C8.34139 4.14068 11.1482 6.8503 12.9573 8.90435C14.7664 10.9584 16.5686 11.145 16.5686 11.145C16.5686 11.145 17.18 5.80446 10.2501 4.49928V4.50014Z" fill="#FFFFEA"/>
  </g>
  <g style="mix-blend-mode:soft-light" opacity="0.8">
    <path d="M7.72824 7.80626C7.00424 8.93941 6.44046 10.5912 9.2585 12.4826C11.4807 13.9744 13.3193 12.3851 13.7454 11.4719C14.1714 10.5587 10.5766 10.034 10.5766 10.034C10.5766 10.034 9.53822 8.00824 8.87139 7.49045C8.20455 6.97352 7.72737 7.80626 7.72737 7.80626H7.72824Z" fill="#FFFFEA"/>
  </g>
  <g style="mix-blend-mode:soft-light" opacity="0.8">
    <path d="M1.85575 17.527C1.46777 16.6198 3.87012 17.3721 4.8851 18.7483C5.90007 20.1245 2.71311 19.5331 1.85575 17.527Z" fill="#FFE052"/>
  </g>
  <g style="mix-blend-mode:soft-light">
    <path d="M7.81224 11.0149C7.71092 10.4278 9.05672 10.9173 9.30873 11.5216C9.56074 12.1267 8.0071 12.1438 7.81224 11.0149Z" fill="#FFFFEA"/>
  </g>
  <g style="mix-blend-mode:multiply" opacity="0.33">
    <path d="M5.01847 12.9739C5.38912 12.1575 9.10609 12.4835 10.69 13.526C12.274 14.5684 11.8133 16.4795 11.608 16.6216C10.8745 17.1299 8.71032 15.6322 8.71032 15.6322C8.71032 15.6322 6.39284 16.7876 5.56146 16.6216C4.73008 16.4555 5.57965 13.7639 5.57965 13.7639C5.57965 13.7639 4.92927 13.1725 5.01933 12.9739H5.01847Z" fill="#FF8D81"/>
  </g>
  <g style="mix-blend-mode:multiply" opacity="0.33">
    <path d="M6.90985 19.9773C5.12498 19.4501 7.62692 19.1694 10.994 17.4209C14.3611 15.6724 15.2713 16.2236 15.4765 16.274C15.6818 16.3245 13.9532 19.0966 11.1932 19.7129C8.43319 20.3291 6.90985 19.9773 6.90985 19.9773Z" fill="#FF8D81"/>
  </g>
  <path d="M5.83339 17.3815C5.83339 17.3815 6.22829 17.4962 7.90838 17.42C9.58846 17.3438 11.0122 17.4097 11.1083 17.3609C11.2045 17.3122 8.8203 18.6421 5.83339 17.3815Z" fill="#FFB551"/>
  <g style="mix-blend-mode:multiply" opacity="0.3">
    <path d="M15.5839 12.8429C15.5813 13.4326 15.3735 13.9375 15.0712 13.7347C14.7101 13.4925 14.252 13.3342 14.3022 12.7907C14.3117 12.6957 14.3169 12.5947 14.3265 12.4929C14.3663 12.017 14.4364 11.5352 14.905 11.6764C14.905 11.6764 15.4713 11.8013 15.564 12.51C15.5796 12.6204 15.5857 12.7334 15.5839 12.842V12.8429Z" fill="#C9455B"/>
  </g>
  <g style="mix-blend-mode:multiply" opacity="0.5">
    <path d="M15.5839 12.8429L15.5709 12.9139C15.5709 12.9139 15.5692 12.5493 15.3986 12.2447C15.228 11.9425 14.9942 11.7072 14.7101 11.8356C14.4278 11.9657 14.3256 12.4929 14.3256 12.4929C14.3654 12.017 14.4356 11.5352 14.9041 11.6764C14.9041 11.6764 15.4705 11.8013 15.5631 12.51C15.5787 12.6204 15.5848 12.7334 15.5831 12.842L15.5839 12.8429Z" fill="#C9455B"/>
  </g>
  <g style="mix-blend-mode:multiply" opacity="0.3">
    <path d="M1.76395 15.965C1.8393 16.3399 1.76568 16.6891 1.53792 16.6018C1.26512 16.4982 0.937768 16.4606 0.900529 16.1088C0.894467 16.0472 0.884941 15.9822 0.878013 15.9163C0.842506 15.609 0.826918 15.2932 1.1586 15.318C1.1586 15.318 1.55351 15.3189 1.70766 15.7562C1.73191 15.8247 1.75096 15.8949 1.76482 15.9642L1.76395 15.965Z" fill="#C9455B"/>
  </g>
  <g style="mix-blend-mode:multiply" opacity="0.5">
    <path d="M1.76395 15.965V16.0121C1.76395 16.0121 1.71632 15.781 1.56217 15.6116C1.40888 15.443 1.22182 15.3266 1.04862 15.4473C0.877143 15.5688 0.877143 15.918 0.877143 15.918C0.841636 15.6107 0.826048 15.2949 1.15773 15.3197C1.15773 15.3197 1.55264 15.3206 1.70679 15.7579C1.73104 15.8264 1.75009 15.8966 1.76395 15.9659V15.965Z" fill="#C9455B"/>
  </g>
  <path d="M16.6336 13.9162C16.4707 13.5653 15.3293 14.8371 15.7008 15.8479C16.0724 16.8595 16.9869 14.6788 16.6336 13.9162Z" fill="#C94027"/>
  <g style="mix-blend-mode:multiply" opacity="0.5">
    <path d="M15.8775 14.5231C15.4557 15.42 16.2092 15.6999 16.5816 14.969C16.954 14.2381 16.5218 13.8375 16.4395 13.8863C16.3573 13.936 15.9901 14.2843 15.8775 14.5222V14.5231Z" fill="#AF5B66"/>
  </g>
  <path d="M15.7589 15.9711C15.6272 15.443 16.4144 15.4678 16.5296 15.3215C16.6448 15.176 16.0065 16.5385 15.7589 15.9711Z" fill="#FFB551"/>
  <path d="M7.80706 4.32635C7.46584 4.36743 7.19824 1.01592 7.37837 0.553762C7.55851 0.0916032 9.46808 -0.157449 9.73742 0.109576C10.0067 0.375746 9.68199 4.24761 9.61271 4.27586C9.54256 4.3041 7.80792 4.32635 7.80792 4.32635H7.80706Z" fill="url(#paint5_linear_56_27863)"/>
  <g style="mix-blend-mode:soft-light" opacity="0.6">
    <path d="M7.54032 0.535921C7.3931 0.727631 7.3394 2.51893 7.80705 3.26608C8.27471 4.01324 9.46029 3.3859 9.61184 2.95455C9.7634 2.5232 9.79371 0.517948 9.61184 0.161914C9.42998 -0.19412 7.8824 0.0908783 7.54032 0.535065V0.535921Z" fill="#FFFFEA"/>
  </g>
  <g style="mix-blend-mode:multiply" opacity="0.5">
    <path d="M7.80705 4.32634C7.49441 4.31693 7.74123 3.88387 8.49986 3.61342C9.2585 3.34297 9.70969 3.61427 9.67246 3.90013C9.63435 4.18598 9.65773 4.38197 7.80705 4.32634Z" fill="#AB0081"/>
  </g>
  <g style="mix-blend-mode:soft-light">
    <path d="M8.6748 0.233624C8.59599 0.414208 8.9883 1.1006 9.2585 1.26064C9.5287 1.42069 9.77551 0.354299 9.48799 0.193399C9.20048 0.0324988 8.77959 -0.00687033 8.6748 0.233624Z" fill="#FFFFEA"/>
  </g>
  <defs>
    <linearGradient id="paint0_linear_56_27863" x1="8.49987" y1="20.9999" x2="8.49987" y2="4.27577" gradientUnits="userSpaceOnUse">
      <stop offset="0.01" stop-color="#D12C2E"/>
      <stop offset="0.35" stop-color="#EB7A1D"/>
      <stop offset="0.42" stop-color="#F38A1D"/>
      <stop offset="0.51" stop-color="#FA961E"/>
      <stop offset="0.64" stop-color="#FD9D1E"/>
      <stop offset="1" stop-color="#FF9F1F"/>
    </linearGradient>
    <linearGradient id="paint1_linear_56_27863" x1="8.44964" y1="20.3959" x2="8.44964" y2="4.59516" gradientUnits="userSpaceOnUse">
      <stop offset="0.01" stop-color="#FE686A"/>
      <stop offset="0.35" stop-color="#EB7A1D"/>
      <stop offset="0.42" stop-color="#F38A1D"/>
      <stop offset="0.51" stop-color="#FA961E"/>
      <stop offset="0.64" stop-color="#FD9D1E"/>
      <stop offset="1" stop-color="#FF9F1F"/>
    </linearGradient>
    <linearGradient id="paint2_linear_56_27863" x1="9.09467" y1="17.8832" x2="7.99013" y2="7.10661" gradientUnits="userSpaceOnUse">
      <stop offset="0.01" stop-color="#FEA740"/>
      <stop offset="0.35" stop-color="#E8771E"/>
      <stop offset="0.41" stop-color="#D46228"/>
      <stop offset="0.48" stop-color="#C45130"/>
      <stop offset="0.56" stop-color="#B94536"/>
      <stop offset="0.68" stop-color="#B23E3A"/>
      <stop offset="1" stop-color="#B13D3B"/>
    </linearGradient>
    <linearGradient id="paint3_linear_56_27863" x1="8.52696" y1="17.4219" x2="8.52779" y2="7.57578" gradientUnits="userSpaceOnUse">
      <stop offset="0.01" stop-color="#FE5433"/>
      <stop offset="0.35" stop-color="#EB7A1D"/>
      <stop offset="0.42" stop-color="#F38A1D"/>
      <stop offset="0.51" stop-color="#FA961E"/>
      <stop offset="0.64" stop-color="#FD9D1E"/>
      <stop offset="1" stop-color="#FF9F1F"/>
    </linearGradient>
    <linearGradient id="paint4_linear_56_27863" x1="8.52845" y1="17.1394" x2="8.52845" y2="7.23291" gradientUnits="userSpaceOnUse">
      <stop offset="0.01" stop-color="#FE816A"/>
      <stop offset="0.35" stop-color="#FA8C1D"/>
      <stop offset="0.4" stop-color="#FB9C1D"/>
      <stop offset="0.46" stop-color="#FDAD1E"/>
      <stop offset="0.55" stop-color="#FEB91E"/>
      <stop offset="0.67" stop-color="#FEC01E"/>
      <stop offset="1" stop-color="#FFC21F"/>
    </linearGradient>
    <linearGradient id="paint5_linear_56_27863" x1="7.32035" y1="2.16362" x2="9.84134" y2="2.16362" gradientUnits="userSpaceOnUse">
      <stop offset="0.01" stop-color="#FE686A"/>
      <stop offset="0.16" stop-color="#EB7A1D"/>
      <stop offset="0.44" stop-color="#F68E1E"/>
      <stop offset="0.73" stop-color="#FC9A1E"/>
      <stop offset="1" stop-color="#FF9F1F"/>
    </linearGradient>
  </defs>
</svg>