<svg width="51" height="44" viewBox="0 0 51 44" fill="none" xmlns="http://www.w3.org/2000/svg">
<g id="Head 1" clip-path="url(#clip0_73_118538)">
<path id="Vector" fill-rule="evenodd" clip-rule="evenodd" d="M46.0822 21.3026C46.0822 15.5214 45.7968 10.2801 43.0306 6.36602C40.2424 2.45191 35.0611 0.0224609 25.3134 0.0224609C15.5656 0.0224609 10.3844 2.45191 7.61817 6.36602C4.85192 10.2576 4.56651 15.5214 4.56651 21.3026V22.2249C4.56651 23.5071 4.56651 24.8793 4.58846 26.274C4.25915 26.4315 3.92983 26.5889 3.60052 26.7914C3.09557 27.1063 2.63452 27.4887 2.21739 27.9161C1.51485 28.636 0.965992 29.4908 0.570814 30.4355C0.197589 31.3578 0 32.3476 0 33.4049C0 34.4621 0.197589 35.4519 0.570814 36.3742C0.944038 37.319 1.51485 38.1738 2.21739 38.8936C2.91993 39.6135 3.7542 40.1758 4.67628 40.5807C5.57641 40.9632 6.5424 41.1656 7.57426 41.1656C7.88162 41.1656 8.21093 41.1656 8.5183 41.0981L8.97934 41.0306C12.6457 44 27.0697 43.955 33.0633 43.955H34.2269C46.3676 43.955 46.2579 35.047 46.1042 24.6769C46.1042 23.6871 46.0822 22.6748 46.0822 21.2801V21.3026ZM34.2269 42.1554H33.0633C27.2234 42.1554 13.0189 42.2229 10.0331 39.591L9.46233 39.0736L9.00129 39.1861C8.78175 39.2535 8.54025 39.2985 8.29875 39.321C8.05725 39.3435 7.81576 39.366 7.57426 39.366C6.7839 39.366 6.03745 39.2085 5.35687 38.9161C4.65433 38.6237 4.01765 38.1738 3.46879 37.6114C2.94189 37.0715 2.5028 36.3967 2.19544 35.6769C1.91003 34.9795 1.75635 34.2147 1.75635 33.4049C1.75635 32.5951 1.91003 31.8302 2.19544 31.1329C2.48084 30.4131 2.91993 29.7607 3.46879 29.1983C3.79811 28.8609 4.14938 28.5685 4.54455 28.3435C4.91778 28.1186 5.33491 27.9161 5.774 27.7587L6.41068 27.5562V26.8814C6.34481 25.2617 6.34481 23.6871 6.34481 22.2474V21.3251C6.34481 15.8589 6.58631 10.9325 9.0452 7.46827C11.5041 4.02655 16.2462 1.88954 25.3134 1.88954C34.3805 1.88954 39.1446 4.02655 41.5816 7.46827C44.0405 10.9325 44.282 15.8589 44.282 21.3251C44.282 22.2249 44.282 23.4846 44.3259 24.7443C44.4576 34.1247 44.5674 42.1779 34.2269 42.1779V42.1554Z" fill="black"/>
<path id="Vector_2" fill-rule="evenodd" clip-rule="evenodd" d="M25.3134 0.944824C6.49848 0.944824 5.44467 10.0553 5.44467 21.3027C5.44467 23.0123 5.44467 24.9244 5.48858 26.8814C4.47868 27.2189 3.57855 27.8037 2.85406 28.5461C1.64656 29.7833 0.900116 31.5154 0.900116 33.405C0.900116 35.2945 1.64656 37.0041 2.85406 38.2638C4.06155 39.5011 5.75203 40.2884 7.5962 40.2884C8.16701 40.2884 8.71587 40.2209 9.24278 40.0859L9.46232 40.2884C12.9311 43.3477 29.2871 43.0778 34.2269 43.0778C46.7628 43.0778 45.1821 32.5726 45.1821 21.3252C45.1821 10.0777 44.1502 0.944824 25.3134 0.944824Z" fill="#242424"/>
<path id="Vector_3" fill-rule="evenodd" clip-rule="evenodd" d="M42.3061 39.3662C40.7473 40.4459 38.6177 41.0533 35.6978 41.0533C33.8756 41.0533 30.4507 41.0983 26.7185 40.9858C20.6371 40.7833 13.7215 40.176 11.6358 38.2864L11.4163 38.084C10.9113 38.2189 10.3625 38.2864 9.8136 38.2864C8.97933 38.2864 8.16702 38.1289 7.44253 37.814C6.60826 37.4766 5.83986 36.9367 5.20318 36.2619C4.01765 35.0247 3.29315 33.2925 3.29315 31.403C3.29315 29.8508 3.7981 28.4112 4.61042 27.2639C3.95178 27.6013 3.35902 28.0512 2.83211 28.5686C1.62462 29.8058 0.878174 31.5379 0.878174 33.4275C0.878174 35.3171 1.62462 37.0267 2.85407 38.2864C4.06156 39.5236 5.75204 40.2885 7.59621 40.2885C8.14507 40.2885 8.69393 40.221 9.19888 40.086C9.19888 40.086 9.22083 40.086 9.24279 40.086L9.46233 40.2885C12.7116 43.1453 27.2234 43.1003 33.1511 43.0778C33.5682 43.0778 33.9195 43.0778 34.2488 43.0778C39.6935 43.0778 42.4597 41.0983 43.8648 37.949C43.4257 38.4889 42.9208 38.9838 42.328 39.3887L42.3061 39.3662Z" fill="#1A1A1A"/>
<path id="Vector_4" fill-rule="evenodd" clip-rule="evenodd" d="M5.44467 21.3026C5.44467 22.8323 5.44467 24.5194 5.46663 26.274C5.92767 25.8241 6.47653 25.4642 7.04734 25.1717C7.28884 25.0593 7.53034 24.9468 7.77183 24.8793C7.70597 22.9223 7.72793 20.9877 7.72793 19.3006C7.72793 16.1288 7.81574 13.137 8.34265 10.4601C8.80369 8.09812 9.616 5.9836 11.043 4.229C5.88376 7.85068 5.46663 14.1492 5.46663 21.3026H5.44467Z" fill="#1A1A1A"/>
<path id="Vector_5" fill-rule="evenodd" clip-rule="evenodd" d="M25.3134 0.944824C18.4636 0.944824 13.963 2.15955 11.0211 4.22908C11.0211 4.22908 10.9991 4.25157 10.9772 4.27407C13.941 3.28429 17.805 2.72192 22.8325 2.72192C35.4343 2.72192 40.7034 6.18613 42.8988 11.4724C43.0745 11.9223 43.2501 12.3722 43.3818 12.8446C44.3039 15.8589 44.4137 19.3456 44.4137 23.0798C44.4137 25.9591 44.5235 28.7935 44.4576 31.4254C44.5454 31.9653 44.5893 32.5052 44.5893 33.09C44.5893 34.4397 44.3478 35.6994 43.9526 36.7342C43.8429 37.2741 43.7111 37.769 43.5575 38.2639C43.6453 38.1514 43.7551 38.0389 43.8429 37.9264C45.687 33.8099 45.1821 27.6688 45.1821 21.3027C45.1821 10.0553 44.1283 0.944824 25.3134 0.944824Z" fill="#333333"/>
<path id="Vector_6" fill-rule="evenodd" clip-rule="evenodd" d="M35.1929 2.65441C30.6703 1.25973 26.3892 2.2495 25.6208 4.85891C24.8523 7.46832 27.904 10.7076 32.4266 12.1023C36.9492 13.4969 41.2303 12.5072 41.9987 9.89776C42.7671 7.28836 39.7155 4.04909 35.1929 2.65441Z" fill="#333333"/>
<path id="Vector_7" fill-rule="evenodd" clip-rule="evenodd" d="M29.9677 1.7997C25.8403 -0.359812 20.3078 -0.427297 13.963 0.832417C13.5678 0.922396 13.2385 1.28231 13.2385 1.70972C13.2385 2.20461 13.6337 2.60951 14.1167 2.63201C20.681 2.69949 24.3913 4.07168 26.4989 6.36616C28.5846 8.59315 29.1993 11.8099 29.5286 15.4991C29.5286 15.994 29.9238 16.3989 30.4068 16.3989H36.6419H36.7297C37.2127 16.3539 37.5639 15.904 37.52 15.4091C36.8834 8.30072 34.161 4.0042 29.9458 1.82219L29.9677 1.7997ZM31.2411 14.5768C30.8459 10.8426 30.0994 7.55839 27.7942 5.10645C26.477 3.68927 24.6548 2.56452 22.152 1.82219C24.8304 1.88968 27.1795 2.38456 29.1554 3.41933C32.6242 5.21892 34.9514 8.75062 35.6759 14.5768H31.2411Z" fill="black"/>
<path id="Vector_8" fill-rule="evenodd" clip-rule="evenodd" d="M14.1386 1.70966C27.8162 1.84463 29.7262 7.6708 30.4288 15.4765H36.6638C35.4343 1.93461 26.455 -0.719789 14.1386 1.70966Z" fill="#333333"/>
<path id="Vector_9" fill-rule="evenodd" clip-rule="evenodd" d="M31.4387 14.0819C30.8679 7.64837 29.4628 2.56452 21.2957 0.899902C19.0784 0.899902 16.6634 1.19234 14.1167 1.70972C27.7942 1.84469 29.7043 7.67086 30.4068 15.4766H36.6418C36.5979 15.0042 36.554 14.5318 36.4882 14.1044H31.4387V14.0819Z" fill="#1A1A1A"/>
<path id="Vector_10" fill-rule="evenodd" clip-rule="evenodd" d="M3.73225 15.679V23.8446L20.6371 29.1984V21.0327L4.85192 16.0389L3.7103 15.679H3.73225ZM5.51055 18.1309L18.8808 22.3599V26.7464L5.51055 22.5174V18.1309Z" fill="black"/>
<path id="Vector_11" fill-rule="evenodd" clip-rule="evenodd" d="M4.63239 23.1923L19.7589 27.9837V21.7077L4.63239 16.9163V23.1923Z" fill="#333333"/>
<path id="Vector_12" fill-rule="evenodd" clip-rule="evenodd" d="M4.63239 23.1922L19.7589 27.9836V26.6789L4.63239 21.865V23.1922Z" fill="#1A1A1A"/>
<path id="Vector_13" fill-rule="evenodd" clip-rule="evenodd" d="M4.63239 17.7036L19.7589 22.495V21.7077L4.63239 16.9163V17.7036Z" fill="#4D4D4D"/>
<path id="Vector_14" fill-rule="evenodd" clip-rule="evenodd" d="M9.06717 41.4357L8.51831 42.5154L16.356 44.0226L24.5889 27.9613L16.7512 26.4541L9.06717 41.4132V41.4357ZM21.9105 29.2885L15.39 41.9756L11.1748 41.1658L17.6952 28.4786L21.9105 29.2885Z" fill="black"/>
<path id="Vector_15" fill-rule="evenodd" clip-rule="evenodd" d="M9.85751 41.8405L15.895 42.9878L23.2716 28.6135L17.2342 27.4663L9.85751 41.8405Z" fill="#333333"/>
<path id="Vector_16" fill-rule="evenodd" clip-rule="evenodd" d="M14.6216 42.7402L15.895 42.9876L23.2716 28.6134L21.9983 28.3884L14.6216 42.7402Z" fill="#1A1A1A"/>
<path id="Vector_17" fill-rule="evenodd" clip-rule="evenodd" d="M9.85751 41.8405L10.6259 41.9755L18.0026 27.6238L17.2342 27.4663L9.85751 41.8405Z" fill="#4D4D4D"/>
<path id="Vector_18" fill-rule="evenodd" clip-rule="evenodd" d="M43.294 20.4479C42.2183 20.4479 41.6694 20.4479 41.4718 20.358C41.4059 20.3355 41.5377 20.2905 41.5157 20.0655C41.3401 17.2762 40.1326 14.7117 38.2884 12.8447C36.4662 11.0001 34.0293 9.85285 31.3508 9.80786C28.6724 9.85285 26.2135 11.0001 24.3694 12.8447C22.5252 14.7117 21.2957 17.2537 21.1201 20.043V20.1555V20.268C21.1201 20.3805 20.9006 20.1555 20.5932 20.223C19.6931 20.403 18.2221 20.403 16.8829 20.403H16.7951C15.2583 20.403 14.3143 20.9653 13.7654 21.7302C13.2165 22.4725 13.0848 23.3948 13.0848 24.1596V35.2946C13.0848 36.4418 13.3483 37.2741 13.8532 37.859C14.4021 38.4663 15.1485 38.7363 16.1365 38.7363H17.2781C19.2101 38.6913 20.0883 38.6688 22.9204 38.6688C24.8524 38.6688 26.7404 37.949 28.6505 37.2291C30.4288 36.5543 32.229 35.8794 33.8976 35.8794C34.9514 35.8794 36.093 36.5318 37.2346 37.1841C38.5958 37.949 39.935 38.7363 41.4718 38.7138H44.282C44.9626 38.7138 45.5334 38.4439 45.9286 37.949C46.3018 37.4991 46.4994 36.8917 46.4994 36.1719V24.0021C46.4994 22.4275 46.4994 20.3805 43.2501 20.3805L43.294 20.4479ZM44.765 36.2394C44.765 36.5093 44.7211 36.7342 44.6113 36.8467C44.5454 36.9142 44.4576 36.9592 44.3039 36.9592H41.4938C40.418 36.9592 39.2764 36.3068 38.1128 35.6545C36.7736 34.8897 35.4344 34.1248 33.9195 34.1248C31.9217 34.1248 29.9897 34.8447 28.0577 35.5645C26.3013 36.2394 24.5669 36.8917 22.9423 36.8917C20.6152 36.8917 19.5613 36.8917 17.2781 36.9367H16.1584C15.6974 36.9367 15.3681 36.8692 15.1924 36.6668C14.9948 36.4418 14.8851 35.9919 14.8851 35.3171V24.1821C14.8851 23.7097 14.9509 23.1923 15.2144 22.8324C15.4559 22.495 15.9389 22.2475 16.8171 22.2475H16.9049C18.3099 22.2475 19.8468 22.2475 20.9664 22.0226C22.2398 21.7526 23.0301 21.1903 22.8984 20.088C23.074 17.7935 24.0839 15.679 25.5988 14.1494C27.1137 12.6197 29.1554 11.6524 31.3508 11.6299C33.5463 11.6524 35.5661 12.6197 37.059 14.1494C38.5958 15.7015 39.6057 17.8385 39.7594 20.178C39.8472 21.1453 39.9789 21.6627 40.7693 22.0001C41.2962 22.225 41.9987 22.2475 43.294 22.2475C44.765 22.2475 44.765 23.2598 44.765 24.0471V36.2169V36.2394Z" fill="black"/>
<path id="Vector_19" fill-rule="evenodd" clip-rule="evenodd" d="M43.294 21.3476C40.9229 21.3476 40.7693 21.3026 40.6595 20.1104C40.3302 15.004 36.2906 10.775 31.3728 10.7075C26.455 10.775 22.3496 15.004 22.0202 20.1104C22.2617 21.3476 19.3418 21.3476 16.839 21.3476C14.3362 21.3476 14.0069 22.9447 14.0069 24.182V35.3169C14.0069 37.139 14.7314 37.8589 16.1804 37.8589C19.1442 37.8139 19.9565 37.7914 22.9643 37.7914C26.5428 37.7914 30.319 34.9795 33.9415 35.002C36.5101 35.0245 38.9251 37.8589 41.4938 37.8589C42.4378 37.8589 43.3599 37.8589 44.3039 37.8589C45.1382 37.8589 45.6431 37.229 45.6431 36.2392V24.2045C45.6431 23.0122 45.7529 21.3701 43.294 21.3701V21.3476Z" fill="#1A1A1A"/>
<path id="Vector_20" fill-rule="evenodd" clip-rule="evenodd" d="M45.5553 20.4479C44.5015 20.4479 43.9307 20.4479 43.7331 20.358C43.6672 20.3355 43.799 20.2905 43.777 20.0655C43.6014 17.2762 42.3939 14.7117 40.5497 12.8447C38.7275 11.0001 36.2906 9.85285 33.6121 9.80786C30.9337 9.85285 28.4748 11.0001 26.6306 12.8447C24.7865 14.7117 23.557 17.2537 23.3814 20.043V20.1555V20.268C23.3814 20.3805 23.1619 20.1555 22.8545 20.223C21.9544 20.403 20.4834 20.403 19.1442 20.403H19.0564C17.5196 20.403 16.5755 20.9653 16.0267 21.7302C15.4778 22.4725 15.3461 23.3948 15.3461 24.1596V35.2946C15.3461 36.4418 15.6096 37.2741 16.1145 37.859C16.6634 38.4663 17.4098 38.7363 18.3978 38.7363H19.5394C21.4714 38.6913 22.3495 38.6688 25.1817 38.6688C27.1136 38.6688 29.0017 37.949 30.9118 37.2291C32.6901 36.5543 34.4903 35.8794 36.1588 35.8794C37.2127 35.8794 38.3543 36.5318 39.4959 37.1841C40.8571 37.949 42.1963 38.7363 43.7331 38.7138H46.5433C47.2239 38.7138 47.7947 38.4439 48.1898 37.949C48.5631 37.4991 48.7607 36.8917 48.7607 36.1719V24.0021C48.7607 22.4275 48.7607 20.3805 45.5114 20.3805L45.5553 20.4479ZM47.0263 36.2394C47.0263 36.5318 46.9824 36.7342 46.8726 36.8467C46.8067 36.9142 46.7189 36.9592 46.5652 36.9592H43.7551C42.6793 36.9592 41.5377 36.3068 40.3741 35.6545C39.0349 34.8897 37.6957 34.1248 36.1808 34.1248C34.183 34.1248 32.251 34.8447 30.319 35.5645C28.5626 36.2394 26.8282 36.8917 25.2036 36.8917C22.8765 36.8917 21.8226 36.8917 19.5394 36.9367H18.4197C17.9587 36.9367 17.6294 36.8692 17.4537 36.6668C17.2561 36.4418 17.1464 35.9919 17.1464 35.3171V24.1821C17.1464 23.7097 17.2122 23.1923 17.4757 22.8324C17.7172 22.495 18.2002 22.2475 19.0783 22.2475H19.1662C20.5712 22.2475 22.108 22.2475 23.2277 22.0226C24.5011 21.7526 25.2914 21.1903 25.1597 20.088C25.3353 17.7935 26.3452 15.679 27.8601 14.1494C29.3749 12.6197 31.4167 11.6524 33.6121 11.6299C35.8076 11.6524 37.8274 12.6197 39.3203 14.1494C40.8571 15.7015 41.867 17.8385 42.0207 20.178C42.1085 21.1453 42.2402 21.6627 43.0086 22.0001C43.5136 22.225 44.2381 22.2475 45.5334 22.2475C47.0043 22.2475 47.0043 23.2598 47.0043 24.0471V36.2169L47.0263 36.2394Z" fill="black"/>
<path id="Vector_21" fill-rule="evenodd" clip-rule="evenodd" d="M45.5553 21.3476C43.1842 21.3476 43.0305 21.3026 42.8988 20.1104C42.5695 15.004 38.5299 10.775 33.6121 10.7075C28.6943 10.775 24.5889 15.004 24.2596 20.1104C24.5011 21.3476 21.5811 21.3476 19.0783 21.3476C16.5755 21.3476 16.2462 22.9447 16.2462 24.182V35.3169C16.2462 37.139 16.9707 37.8589 18.4197 37.8589C21.3835 37.8139 22.1958 37.7914 25.2036 37.7914C28.7822 37.7914 32.5583 34.9795 36.1808 35.002C38.7494 35.0245 41.1644 37.8589 43.7331 37.8589C44.6771 37.8589 45.5992 37.8589 46.5432 37.8589C47.3775 37.8589 47.8825 37.229 47.8825 36.2392V24.2045C47.8825 23.0122 47.9922 21.3701 45.5333 21.3701L45.5553 21.3476Z" fill="#3E3E3E"/>
<path id="Vector_22" fill-rule="evenodd" clip-rule="evenodd" d="M45.5553 21.3476C43.1842 21.3476 43.0306 21.3026 42.8988 20.1103C42.5915 15.184 38.8153 11.0899 34.139 10.73L35.7856 35.002C35.9173 35.002 36.0491 35.002 36.1808 35.002C38.7495 35.0245 41.1644 37.8588 43.7331 37.8588C44.6771 37.8588 45.5992 37.8588 46.5433 37.8588C47.3775 37.8588 47.8825 37.229 47.8825 36.2392V24.2044C47.8825 23.0122 47.9922 21.3701 45.5334 21.3701L45.5553 21.3476Z" fill="#4D4D4D"/>
<path id="Vector_23" fill-rule="evenodd" clip-rule="evenodd" d="M25.006 21.8875C22.9862 21.8875 21.164 22.7198 19.8467 24.092C18.5295 25.4416 17.7172 27.3087 17.7172 29.3783C17.7172 31.4478 18.5295 33.3149 19.8467 34.6645C21.164 36.0142 22.9862 36.8465 25.006 36.8465C27.0258 36.8465 28.848 36.0142 30.1653 34.6645C31.4826 33.3149 32.2949 31.4478 32.2949 29.3783C32.2949 27.3087 31.4826 25.4416 30.1653 24.092C28.848 22.7423 27.0258 21.9099 25.006 21.9099V21.8875ZM28.9139 33.3598C27.9259 34.3721 26.5428 35.0245 25.006 35.0245C23.4692 35.0245 22.108 34.3946 21.0981 33.3598C20.1102 32.3476 19.4735 30.9304 19.4735 29.3558C19.4735 27.7811 20.0882 26.3639 21.0981 25.3517C22.0861 24.3394 23.4692 23.687 25.006 23.687C26.5428 23.687 27.904 24.3169 28.9139 25.3517C29.9018 26.3639 30.5385 27.7811 30.5385 29.3558C30.5385 30.9304 29.9238 32.3251 28.9139 33.3598Z" fill="black"/>
<path id="Vector_24" fill-rule="evenodd" clip-rule="evenodd" d="M25.006 22.8098C21.4714 22.8098 18.5953 25.7566 18.5953 29.3783C18.5953 33 21.4714 35.9468 25.006 35.9468C28.5407 35.9468 31.4167 33 31.4167 29.3783C31.4167 25.7566 28.5407 22.8098 25.006 22.8098Z" fill="#1A1A1A"/>
<path id="Vector_25" fill-rule="evenodd" clip-rule="evenodd" d="M25.3353 22.8098H25.1817H25.006H24.8304H24.6767C21.4275 22.9898 18.8149 25.6217 18.6173 28.9509C18.8369 31.9652 21.6031 34.3272 25.006 34.3272C28.409 34.3272 31.1752 31.9427 31.3948 28.9509C31.1752 25.6442 28.5846 22.9898 25.3353 22.8323V22.8098Z" fill="#333333"/>
<path id="Vector_26" fill-rule="evenodd" clip-rule="evenodd" d="M26.5648 23.9121C26.1037 23.9121 25.6427 23.9796 25.2256 24.0921C24.7865 24.2045 24.3694 24.3845 23.9961 24.587C23.2058 24.9469 22.5252 25.5317 22.0202 26.3416C21.5811 27.0614 21.2957 27.9837 21.2518 29.0859V29.6258C21.2957 30.7281 21.5811 31.6279 22.0202 32.3702C22.5252 33.18 23.2058 33.7649 23.9961 34.1248C24.3694 34.3497 24.7865 34.5072 25.2256 34.6197C25.6647 34.7322 26.1037 34.7996 26.5648 34.7996C28.0357 34.7996 29.353 34.1923 30.319 33.2025C31.285 32.2127 31.8777 30.8405 31.8777 29.3559C31.8777 27.8712 31.285 26.4765 30.319 25.5092C29.353 24.5195 28.0138 23.9121 26.5648 23.9121ZM29.7043 32.5726C28.9139 33.3825 27.7942 33.8998 26.5648 33.8998C26.1696 33.8998 25.7964 33.8548 25.4451 33.7649C25.0719 33.6749 24.7206 33.5174 24.3913 33.3375H24.3474C23.7107 33.045 23.1619 32.5501 22.7667 31.8978C22.3935 31.2904 22.1739 30.5256 22.13 29.6033V29.1309C22.1739 28.2086 22.3935 27.4438 22.7667 26.8364C23.1619 26.1841 23.7327 25.7117 24.3474 25.4193H24.3913C24.7206 25.2168 25.0719 25.0593 25.4451 24.9694C25.7964 24.8794 26.1696 24.8344 26.5648 24.8344C27.7942 24.8344 28.8919 25.3518 29.7043 26.1616C30.5166 26.9939 30.9996 28.1187 30.9996 29.3784C30.9996 30.6381 30.4946 31.7628 29.7043 32.5951V32.5726Z" fill="black"/>
<path id="Vector_27" fill-rule="evenodd" clip-rule="evenodd" d="M26.5648 24.3621C25.7086 24.3621 24.8963 24.587 24.1718 24.9919C22.8325 25.5993 21.7568 26.9715 21.6909 29.086V29.221V29.3559V29.4909V29.6259C21.7787 31.7629 22.8325 33.1126 24.1718 33.7199C24.8743 34.1248 25.6866 34.3498 26.5648 34.3498C29.2652 34.3498 31.4387 32.1228 31.4387 29.3559C31.4387 26.5891 29.2652 24.3621 26.5648 24.3621Z" fill="#1A1A1A"/>
<path id="Vector_28" fill-rule="evenodd" clip-rule="evenodd" d="M26.5648 24.3621C23.8864 24.3621 21.6909 26.6115 21.6909 29.3559C21.6909 32.1003 23.8864 34.3498 26.5648 34.3498C29.2432 34.3498 31.4387 32.1003 31.4387 29.3559C31.4387 26.6115 29.2432 24.3621 26.5648 24.3621Z" fill="#1A1A1A"/>
<path id="Vector_29" fill-rule="evenodd" clip-rule="evenodd" d="M21.6909 29.3782C21.6909 35.6768 30.0994 35.6768 30.0994 29.3782C30.0994 23.0797 21.6909 23.0797 21.6909 29.3782Z" fill="#BA0000"/>
<path id="Vector_30" fill-rule="evenodd" clip-rule="evenodd" d="M22.2617 29.3782C22.2617 33.7422 28.0796 33.7422 28.0796 29.3782C28.0796 25.0142 22.2617 25.0142 22.2617 29.3782Z" fill="#9C0000"/>
<path id="Vector_31" fill-rule="evenodd" clip-rule="evenodd" d="M24.1717 25.0142C23.6888 25.2842 23.2716 25.6441 22.9203 26.049C25.4012 24.6993 29.0895 26.1165 29.0895 30.2781C29.0895 31.6277 28.7163 32.685 28.1016 33.4498C29.2432 32.7075 30.0994 31.3578 30.0994 29.3558C30.0994 25.3292 26.6745 23.867 24.1937 24.9918L24.1717 25.0142Z" fill="#F60000"/>
<path id="Vector_32" fill-rule="evenodd" clip-rule="evenodd" d="M27.3332 25.4643C26.1257 24.8569 24.8304 25.0369 24.4352 25.8467C24.0401 26.6565 24.7206 27.8262 25.9281 28.4336C27.1356 29.041 28.4309 28.861 28.8261 28.0512C29.2213 27.2414 28.5407 26.0716 27.3332 25.4643Z" fill="#F60000"/>
<path id="Vector_33" fill-rule="evenodd" clip-rule="evenodd" d="M27.5747 25.2617C26.6746 24.8118 25.7086 24.9468 25.4232 25.5541C25.1378 26.1615 25.6207 27.0163 26.5209 27.4662C27.421 27.9161 28.387 27.7811 28.6724 27.1738C28.9578 26.5664 28.4748 25.7116 27.5747 25.2617Z" fill="white"/>
<path id="Vector_34" fill-rule="evenodd" clip-rule="evenodd" d="M24.9621 31.7627C24.2596 31.4253 23.5131 31.5153 23.2936 31.9877C23.0741 32.46 23.4473 33.1349 24.1498 33.4723C24.8524 33.8097 25.5988 33.7198 25.8184 33.2474C26.0379 32.775 25.6647 32.1001 24.9621 31.7627Z" fill="white"/>
<path id="Vector_35" fill-rule="evenodd" clip-rule="evenodd" d="M43.7112 21.8875C41.6914 21.8875 39.8691 22.7198 38.5519 24.0695C37.2346 25.4191 36.4223 27.2862 36.4223 29.3558C36.4223 31.4253 37.2346 33.2924 38.5519 34.6421C39.8691 35.9917 41.6914 36.8241 43.7112 36.8241C45.731 36.8241 47.5532 35.9917 48.8704 34.6421C50.1877 33.2924 51 31.4253 51 29.3558C51 27.2862 50.1877 25.4191 48.8704 24.0695C47.5532 22.7198 45.731 21.8875 43.7112 21.8875ZM47.619 33.3598C46.6311 34.3721 45.248 35.0245 43.7112 35.0245C42.1743 35.0245 40.8132 34.3946 39.8033 33.3598C38.8153 32.3476 38.1787 30.9304 38.1787 29.3558C38.1787 27.7811 38.7934 26.3864 39.8033 25.3517C40.7912 24.3394 42.1743 23.687 43.7112 23.687C45.248 23.687 46.6091 24.3169 47.619 25.3517C48.607 26.3639 49.2437 27.7811 49.2437 29.3558C49.2437 30.9304 48.6289 32.3251 47.619 33.3598Z" fill="black"/>
<path id="Vector_36" fill-rule="evenodd" clip-rule="evenodd" d="M43.7112 22.8098C40.1765 22.8098 37.3005 25.7566 37.3005 29.3783C37.3005 33 40.1765 35.9468 43.7112 35.9468C47.2458 35.9468 50.1218 33 50.1218 29.3783C50.1218 25.7566 47.2458 22.8098 43.7112 22.8098Z" fill="#1A1A1A"/>
<path id="Vector_37" fill-rule="evenodd" clip-rule="evenodd" d="M44.0405 22.8098H43.8868H43.7111H43.5355H43.3818C40.1326 22.9898 37.52 25.6217 37.3224 28.9509C37.542 31.9652 40.3082 34.3272 43.7111 34.3272C47.1141 34.3272 49.8803 31.9427 50.0999 28.9509C49.8803 25.6442 47.2897 22.9898 44.0405 22.8323V22.8098Z" fill="#333333"/>
<path id="Vector_38" fill-rule="evenodd" clip-rule="evenodd" d="M45.2699 23.9121C44.8089 23.9121 44.3478 23.9796 43.9307 24.0921C43.4916 24.2045 43.0745 24.3845 42.7012 24.587C41.9328 24.9469 41.2303 25.5317 40.7253 26.3416C40.2863 27.0614 40.0008 27.9837 39.9569 29.0859V29.6258C40.0008 30.7056 40.2863 31.6279 40.7253 32.3702C41.2303 33.18 41.9109 33.7649 42.7012 34.1248C43.0745 34.3497 43.4916 34.5072 43.9307 34.6197C44.3698 34.7322 44.8089 34.7996 45.2699 34.7996C46.7408 34.7996 48.0801 34.1923 49.0241 33.2025C49.9901 32.2127 50.5829 30.8405 50.5829 29.3559C50.5829 27.8712 49.9901 26.4765 49.0241 25.5092C48.0581 24.5195 46.7189 23.9121 45.2699 23.9121ZM48.4094 32.5726C47.5971 33.405 46.4993 33.8998 45.2699 33.8998C44.8747 33.8998 44.5015 33.8548 44.1502 33.7649C43.777 33.6749 43.4257 33.5174 43.0964 33.3375H43.0525C42.4158 33.045 41.867 32.5501 41.4498 31.8978C41.0766 31.2904 40.8571 30.5256 40.8132 29.6033V29.1309C40.8571 28.2086 41.0766 27.4438 41.4498 26.8364C41.845 26.1841 42.4158 25.7117 43.0306 25.4193H43.0745C43.4038 25.2168 43.755 25.0593 44.1283 24.9694C44.4795 24.8794 44.8528 24.8344 45.2479 24.8344C46.4774 24.8344 47.5751 25.3518 48.3874 26.1616C49.1997 26.9939 49.6827 28.1187 49.6827 29.3784C49.6827 30.6381 49.1778 31.7628 48.3874 32.5951L48.4094 32.5726Z" fill="black"/>
<path id="Vector_39" fill-rule="evenodd" clip-rule="evenodd" d="M45.2699 24.3621C44.4137 24.3621 43.6014 24.587 42.8769 24.9919C41.5377 25.5993 40.4619 26.9715 40.396 29.086V29.221V29.3559V29.4909V29.6259C40.4838 31.7629 41.5377 33.1126 42.8769 33.7199C43.5794 34.1248 44.3917 34.3498 45.2699 34.3498C47.9703 34.3498 50.1438 32.1228 50.1438 29.3559C50.1438 26.5891 47.9703 24.3621 45.2699 24.3621Z" fill="#1A1A1A"/>
<path id="Vector_40" fill-rule="evenodd" clip-rule="evenodd" d="M45.2699 24.3621C42.5915 24.3621 40.396 26.6115 40.396 29.3559C40.396 32.1003 42.5915 34.3498 45.2699 34.3498C47.9483 34.3498 50.1438 32.1003 50.1438 29.3559C50.1438 26.6115 47.9483 24.3621 45.2699 24.3621Z" fill="#1A1A1A"/>
<path id="Vector_41" fill-rule="evenodd" clip-rule="evenodd" d="M40.396 29.3782C40.396 35.6768 48.8046 35.6768 48.8046 29.3782C48.8046 23.0797 40.396 23.0797 40.396 29.3782Z" fill="#BA0000"/>
<path id="Vector_42" fill-rule="evenodd" clip-rule="evenodd" d="M40.9669 29.3782C40.9669 33.7422 46.7848 33.7422 46.7848 29.3782C46.7848 25.0142 40.9669 25.0142 40.9669 29.3782Z" fill="#9C0000"/>
<path id="Vector_43" fill-rule="evenodd" clip-rule="evenodd" d="M42.8769 25.0142C42.3939 25.2842 41.9768 25.6441 41.6255 26.049C44.1063 24.6993 47.7947 26.1165 47.7947 30.2781C47.7947 31.6277 47.4214 32.685 46.8067 33.4498C47.9703 32.7075 48.8046 31.3578 48.8046 29.3558C48.8046 25.3292 45.3797 23.867 42.8988 24.9918L42.8769 25.0142Z" fill="#F60000"/>
<path id="Vector_44" fill-rule="evenodd" clip-rule="evenodd" d="M46.0383 25.4643C44.8308 24.8569 43.5355 25.0369 43.1403 25.8467C42.7451 26.6565 43.4257 27.8262 44.6332 28.4336C45.8407 29.041 47.136 28.861 47.5312 28.0512C47.9264 27.2414 47.2458 26.0716 46.0383 25.4643Z" fill="#F60000"/>
<path id="Vector_45" fill-rule="evenodd" clip-rule="evenodd" d="M46.3018 25.2617C45.4016 24.8118 44.4356 24.9468 44.1502 25.5541C43.8648 26.1615 44.3478 27.0163 45.248 27.4662C46.1481 27.9161 47.1141 27.7811 47.3995 27.1738C47.6849 26.5664 47.2019 25.7116 46.3018 25.2617Z" fill="white"/>
<path id="Vector_46" fill-rule="evenodd" clip-rule="evenodd" d="M43.6672 31.7627C42.9647 31.4253 42.2183 31.5153 41.9987 31.9877C41.7792 32.46 42.1524 33.1349 42.8549 33.4723C43.5575 33.8097 44.3039 33.7198 44.5235 33.2474C44.743 32.775 44.3698 32.1001 43.6672 31.7627Z" fill="white"/>
<path id="Vector_47" fill-rule="evenodd" clip-rule="evenodd" d="M34.3806 11.2925C32.3608 11.2925 30.5385 12.1248 29.2213 13.4745C27.904 14.8242 27.0917 16.6913 27.0917 18.7608C27.0917 20.8303 27.904 22.6974 29.2213 24.0471C30.5385 25.3968 32.3608 26.2291 34.3806 26.2291C36.4004 26.2291 38.2226 25.3968 39.5398 24.0471C40.8571 22.6974 41.6694 20.8303 41.6694 18.7608C41.6694 16.6913 40.8571 14.8242 39.5398 13.4745C38.2226 12.1248 36.4004 11.2925 34.3806 11.2925ZM38.2884 22.7649C37.3005 23.7771 35.9174 24.4295 34.3806 24.4295C32.8438 24.4295 31.4826 23.7996 30.4727 22.7649C29.4628 21.7301 28.8481 20.3354 28.8481 18.7608C28.8481 17.1861 29.4628 15.7915 30.4727 14.7567C31.4826 13.7219 32.8438 13.0921 34.3806 13.0921C35.9174 13.0921 37.2785 13.7219 38.2884 14.7567C39.2983 15.7915 39.9131 17.1861 39.9131 18.7608C39.9131 20.3354 39.2983 21.7301 38.2884 22.7649Z" fill="black"/>
<path id="Vector_48" fill-rule="evenodd" clip-rule="evenodd" d="M34.3806 12.2148C30.8459 12.2148 27.9699 15.1617 27.9699 18.7834C27.9699 22.405 30.8459 25.3519 34.3806 25.3519C37.9152 25.3519 40.7912 22.405 40.7912 18.7834C40.7912 15.1617 37.9152 12.2148 34.3806 12.2148Z" fill="#1A1A1A"/>
<path id="Vector_49" fill-rule="evenodd" clip-rule="evenodd" d="M34.7099 12.2148H34.5562H34.3805H34.2049H34.0512C30.802 12.3948 28.1894 15.0267 27.9918 18.3559C28.2114 21.3703 30.9776 23.7322 34.3805 23.7322C37.7835 23.7322 40.5497 21.3478 40.7693 18.3559C40.5497 15.0492 37.9591 12.3948 34.7099 12.2373V12.2148Z" fill="#333333"/>
<path id="Vector_50" fill-rule="evenodd" clip-rule="evenodd" d="M35.9393 13.3169C35.4783 13.3169 35.0172 13.3844 34.6001 13.4969C34.161 13.6093 33.7439 13.7893 33.3706 13.9917C32.6022 14.3517 31.8997 14.9365 31.3947 15.7463C30.9557 16.4662 30.6703 17.3885 30.6263 18.4907V19.0306C30.6703 20.1328 30.9557 21.0326 31.3947 21.775C31.8997 22.5848 32.5803 23.1697 33.3706 23.5296C33.7439 23.7545 34.161 23.912 34.6001 24.0245C35.0392 24.1369 35.4783 24.2044 35.9393 24.2044C37.4102 24.2044 38.7495 23.5971 39.6935 22.6073C40.6595 21.6175 41.2523 20.2453 41.2523 18.7607C41.2523 17.276 40.6595 15.9038 39.6935 14.914C38.7275 13.9243 37.3883 13.3169 35.9393 13.3169ZM39.0788 21.9774C38.2665 22.8097 37.1687 23.3046 35.9393 23.3046C35.5441 23.3046 35.1709 23.2596 34.8196 23.1697C34.4464 23.0797 34.0951 22.9222 33.7658 22.7423H33.7219C33.0852 22.4273 32.5364 21.9549 32.1192 21.3026C31.746 20.6952 31.5265 19.9304 31.4826 19.0081V18.5357C31.5265 17.6134 31.746 16.8486 32.1192 16.2412C32.5144 15.5889 33.0852 15.1165 33.7 14.8241H33.7439C34.0732 14.6216 34.4244 14.4641 34.7977 14.3742C35.1489 14.2842 35.5222 14.2392 35.9173 14.2392C37.1468 14.2392 38.2445 14.7566 39.0568 15.5664C39.8691 16.3762 40.3521 17.5234 40.3521 18.7832C40.3521 20.0429 39.8472 21.1676 39.0568 21.9999L39.0788 21.9774Z" fill="black"/>
<path id="Vector_51" fill-rule="evenodd" clip-rule="evenodd" d="M35.9393 13.7893C35.0831 13.7893 34.2708 14.0143 33.5463 14.4192C32.2071 15.0265 31.1313 16.3987 31.0654 18.5132V18.6482V18.7832V18.9181V19.0531C31.1532 21.1901 32.2071 22.5398 33.5463 23.1472C34.2488 23.5521 35.0611 23.777 35.9393 23.777C38.6397 23.777 40.8132 21.55 40.8132 18.7832C40.8132 16.0163 38.6397 13.7893 35.9393 13.7893Z" fill="#1A1A1A"/>
<path id="Vector_52" fill-rule="evenodd" clip-rule="evenodd" d="M35.9393 13.7893C33.2609 13.7893 31.0654 16.0388 31.0654 18.7832C31.0654 21.5275 33.2609 23.777 35.9393 23.777C38.6177 23.777 40.8132 21.5275 40.8132 18.7832C40.8132 16.0388 38.6177 13.7893 35.9393 13.7893Z" fill="#1A1A1A"/>
<path id="Vector_53" fill-rule="evenodd" clip-rule="evenodd" d="M31.0654 18.7833C31.0654 25.0818 39.474 25.0818 39.474 18.7833C39.474 12.4847 31.0654 12.4847 31.0654 18.7833Z" fill="#BA0000"/>
<path id="Vector_54" fill-rule="evenodd" clip-rule="evenodd" d="M31.6143 18.7833C31.6143 23.1473 37.4322 23.1473 37.4322 18.7833C37.4322 14.4193 31.6143 14.4193 31.6143 18.7833Z" fill="#9C0000"/>
<path id="Vector_55" fill-rule="evenodd" clip-rule="evenodd" d="M33.5463 14.4193C33.0633 14.6892 32.6461 15.0491 32.2949 15.454C34.7757 14.1043 38.464 15.5215 38.464 19.6831C38.464 21.0328 38.0908 22.09 37.4761 22.8549C38.6397 22.1125 39.4739 20.7628 39.4739 18.7608C39.4739 14.7342 36.0491 13.272 33.5682 14.3968L33.5463 14.4193Z" fill="#F60000"/>
<path id="Vector_56" fill-rule="evenodd" clip-rule="evenodd" d="M36.7077 14.8691C35.5002 14.2617 34.2049 14.4417 33.8097 15.2515C33.4146 16.0613 34.0952 17.231 35.3026 17.8384C36.5101 18.4457 37.8054 18.2658 38.2006 17.456C38.5958 16.6462 37.9152 15.4764 36.7077 14.8691Z" fill="#F60000"/>
<path id="Vector_57" fill-rule="evenodd" clip-rule="evenodd" d="M36.9492 14.6667C36.0491 14.2168 35.0831 14.3518 34.7977 14.9592C34.5123 15.5665 34.9953 16.4213 35.8954 16.8712C36.7955 17.3211 37.7615 17.1862 38.0469 16.5788C38.3323 15.9714 37.8493 15.1166 36.9492 14.6667Z" fill="white"/>
<path id="Vector_58" fill-rule="evenodd" clip-rule="evenodd" d="M34.3366 21.1901C33.6341 20.8302 32.8876 20.9427 32.6681 21.4151C32.4485 21.8875 32.8218 22.5623 33.5243 22.8997C34.2268 23.2597 34.9733 23.1472 35.1928 22.6748C35.4124 22.2024 35.0392 21.5276 34.3366 21.1901Z" fill="white"/>
<path id="Vector_59" fill-rule="evenodd" clip-rule="evenodd" d="M17.9367 22.2249C17.4976 22.2249 17.1244 22.6972 17.1244 23.2596C17.1244 23.822 17.4976 24.2944 17.9367 24.2944C18.3758 24.2944 18.749 23.822 18.749 23.2596C18.749 22.6972 18.3758 22.2249 17.9367 22.2249Z" fill="black"/>
<path id="Vector_60" fill-rule="evenodd" clip-rule="evenodd" d="M17.9367 35.0247C17.4976 35.0247 17.1244 35.4971 17.1244 36.0594C17.1244 36.6218 17.4976 37.0942 17.9367 37.0942C18.3758 37.0942 18.749 36.6443 18.749 36.0594C18.749 35.4746 18.3758 35.0247 17.9367 35.0247Z" fill="black"/>
</g>
<defs>
<clipPath id="clip0_73_118538">
<rect width="51" height="44" fill="white"/>
</clipPath>
</defs>
</svg>
