<svg xmlns="http://www.w3.org/2000/svg" width="17" height="14" viewBox="0 0 17 14" fill="none">
  <path fill-rule="evenodd" clip-rule="evenodd" d="M0.0838712 5.62665C-0.300128 3.42681 0.633951 0.937049 2.89667 0.22041C5.24675 -0.52407 7.39618 0.756089 8.35906 1.99353C9.32194 0.756089 11.4714 -0.52407 13.8215 0.22041C16.0842 0.937049 17.0183 3.42633 16.6347 5.62665C16.0256 9.11864 12.2447 12.5713 8.91442 13.8898C8.54098 14.0377 8.17858 14.0358 7.80466 13.8898C4.50467 12.6025 0.692991 9.11864 0.0838712 5.62665Z" fill="url(#paint0_radial_56_27667)"/>
  <path style="mix-blend-mode:multiply" opacity="0.75" fill-rule="evenodd" clip-rule="evenodd" d="M8.98835 1.33353C10.9309 -0.117029 13.4399 0.91545 14.5727 2.56713C15.4146 3.79497 15.7117 5.52873 15.1463 7.36905C14.3077 10.0978 10.6309 12.7854 8.36147 12.9198C6.62291 13.023 4.6362 11.8686 2.71716 10.358C4.19508 11.93 6.07043 13.2135 7.80419 13.8898C8.17811 14.0358 8.54099 14.0377 8.91395 13.8898C12.2447 12.5713 16.0251 9.11864 16.6343 5.62665C17.0178 3.42681 16.0837 0.93705 13.821 0.22041C11.8938 -0.390149 10.1015 0.36105 8.98787 1.33353H8.98835Z" fill="url(#paint1_radial_56_27667)"/>
  <path style="mix-blend-mode:multiply" opacity="0.75" fill-rule="evenodd" clip-rule="evenodd" d="M7.11588 3.72969C7.21908 3.55401 7.94147 2.43993 8.35907 1.99353C7.3962 0.756089 5.24676 -0.52407 2.89668 0.22041C1.70964 0.59673 0.887881 1.46073 0.430922 2.51481C2.0898 -0.51255 7.04676 0.51849 6.89412 3.11529C6.88452 3.27561 6.87924 3.43497 6.84852 3.58905C6.81348 3.76569 6.80772 3.86601 6.87396 3.89337C6.93876 3.92025 7.03524 3.86601 7.11588 3.72921V3.72969Z" fill="url(#paint2_radial_56_27667)"/>
  <path style="mix-blend-mode:screen" fill-rule="evenodd" clip-rule="evenodd" d="M9.79043 12.1378C11.3072 11.5829 12.8523 10.5552 13.8848 9.14643C14.6322 8.12643 14.8323 7.54947 13.4615 8.65251C12.1194 9.73203 10.8853 10.4765 9.55715 11.2776C7.83683 12.3154 7.71923 12.8952 9.79043 12.1378Z" fill="url(#paint3_radial_56_27667)"/>
  <path style="mix-blend-mode:screen" fill-rule="evenodd" clip-rule="evenodd" d="M10.9679 0.734123C10.2771 0.723563 9.69635 0.913162 9.22355 1.25684C7.70435 2.36276 6.86147 4.11668 6.67283 5.95508C6.56915 6.96692 6.61763 8.0906 7.18595 8.23124C7.40579 8.28548 7.68275 8.04452 8.05043 7.60244C8.89715 6.5834 9.46307 5.6858 10.3698 4.8818C11.828 3.5882 12.5154 3.47492 13.5671 3.545C14.2304 3.58916 14.4493 3.64532 14.5803 3.47396C14.7176 3.29444 14.7032 2.9378 14.2875 2.36996C13.592 1.41956 12.1991 0.752363 10.9679 0.733643V0.734123Z" fill="url(#paint4_radial_56_27667)"/>
  <path style="mix-blend-mode:screen" fill-rule="evenodd" clip-rule="evenodd" d="M9.86147 0.996104C8.40611 1.5577 7.08995 3.8017 6.94787 5.16202C6.90755 5.54602 6.99443 5.80858 7.10675 5.82202C7.29011 5.8441 7.52003 5.57338 7.77635 5.1937C8.01347 4.84234 8.42483 4.28314 8.76227 3.9217C9.84803 2.75914 10.5397 2.42698 12.0651 2.14666C12.6551 2.03818 12.9378 1.92442 12.957 1.70842C12.9771 1.47706 12.6954 1.14154 12.164 0.962504C11.5127 0.743144 10.5757 0.720584 9.86147 0.996104Z" fill="url(#paint5_radial_56_27667)"/>
  <path style="mix-blend-mode:screen" fill-rule="evenodd" clip-rule="evenodd" d="M10.5613 1.14116C9.6781 1.31828 8.89186 1.85348 8.40562 2.65124C8.28994 2.84084 8.26306 3.02756 8.32738 3.1034C8.38882 3.17588 8.53474 3.1442 8.74786 3.03188C9.0589 2.86772 9.54514 2.57492 9.99586 2.34788C10.3851 2.15204 10.7432 2.01764 10.9352 1.9658C11.805 1.7306 11.8506 0.882442 10.5618 1.14068L10.5613 1.14116Z" fill="url(#paint6_radial_56_27667)"/>
  <path style="mix-blend-mode:screen" fill-rule="evenodd" clip-rule="evenodd" d="M0.893144 1.92447C-0.546854 3.55407 0.216345 6.23774 0.596505 7.03358C0.773624 7.40462 0.947384 7.7843 1.12306 8.09726C1.3669 8.53262 2.07538 9.33854 2.06146 8.39438C2.05858 8.19374 2.04034 7.9331 2.05282 7.66142C2.15746 5.35983 2.73634 3.52479 5.77858 3.74223C6.40498 3.78687 6.74242 3.95151 6.82642 3.16479C6.86002 2.84943 6.8173 2.44479 6.58642 2.09919C5.3413 0.23583 2.3197 0.30975 0.893144 1.92447Z" fill="url(#paint7_radial_56_27667)"/>
  <path style="mix-blend-mode:screen" fill-rule="evenodd" clip-rule="evenodd" d="M2.23858 1.11411C0.755864 1.7357 -0.00301544 3.41618 0.220184 5.02946C0.273944 5.41922 0.411704 5.68514 0.528344 5.69858C0.718904 5.72066 0.891704 5.44658 1.0669 5.06162C1.22914 4.70546 1.43746 4.26146 1.69858 3.8957C2.54002 2.71682 3.15106 2.44322 4.43458 2.09618C5.14162 1.90514 5.30818 1.8269 5.31874 1.65314C5.36626 0.864505 3.47074 0.597145 2.23714 1.11459L2.23858 1.11411Z" fill="url(#paint8_radial_56_27667)"/>
  <path style="mix-blend-mode:screen" fill-rule="evenodd" clip-rule="evenodd" d="M3.03445 1.04658C2.10325 1.24146 1.36069 1.83042 1.00837 2.70834C0.924847 2.91713 0.937807 3.12257 1.02613 3.20609C1.11061 3.28577 1.26373 3.25121 1.47205 3.12786C1.77685 2.94738 2.24485 2.6253 2.68885 2.37522C3.07189 2.1597 3.43525 2.01186 3.63493 1.95474C4.53828 1.69602 4.3938 0.762417 3.03445 1.04706V1.04658ZM0.360848 4.11953C0.295568 4.49057 0.496688 5.23313 0.829807 4.75937C0.954127 4.58273 1.05205 4.37633 1.13029 4.16705C1.19221 4.00097 1.15333 3.70529 0.977167 3.59153C0.592687 3.34337 0.406448 3.86081 0.360848 4.11905V4.11953Z" fill="url(#paint9_radial_56_27667)"/>
  <defs>
    <radialGradient id="paint0_radial_56_27667" cx="0" cy="0" r="1" gradientUnits="userSpaceOnUse" gradientTransform="translate(4.09283 3.08505) scale(14.8608 14.8608)">
      <stop stop-color="#FF2B2F"/>
      <stop offset="0.08" stop-color="#F02629"/>
      <stop offset="0.38" stop-color="#BD1517"/>
      <stop offset="0.65" stop-color="#98090A"/>
      <stop offset="0.86" stop-color="#820202"/>
      <stop offset="1" stop-color="#7A0000"/>
    </radialGradient>
    <radialGradient id="paint1_radial_56_27667" cx="0" cy="0" r="1" gradientUnits="userSpaceOnUse" gradientTransform="translate(5.21844 5.15097) scale(13.0315 13.0315)">
      <stop offset="0.59" stop-color="white"/>
      <stop offset="0.67" stop-color="#EDCECE"/>
      <stop offset="0.86" stop-color="#C25757"/>
      <stop offset="1" stop-color="#A30000"/>
    </radialGradient>
    <radialGradient id="paint2_radial_56_27667" cx="0" cy="0" r="1" gradientUnits="userSpaceOnUse" gradientTransform="translate(2.26068 3.92649) scale(6.48623)">
      <stop offset="0.41" stop-color="white"/>
      <stop offset="0.5" stop-color="#EDCECE"/>
      <stop offset="0.64" stop-color="#D38686"/>
      <stop offset="0.76" stop-color="#BE4C4C"/>
      <stop offset="0.87" stop-color="#AF2222"/>
      <stop offset="0.95" stop-color="#A60909"/>
      <stop offset="1" stop-color="#A30000"/>
    </radialGradient>
    <radialGradient id="paint3_radial_56_27667" cx="0" cy="0" r="1" gradientUnits="userSpaceOnUse" gradientTransform="translate(6.31091 3.28515) scale(12.6974 12.6974)">
      <stop stop-color="#FF6969"/>
      <stop offset="1"/>
    </radialGradient>
    <radialGradient id="paint4_radial_56_27667" cx="0" cy="0" r="1" gradientUnits="userSpaceOnUse" gradientTransform="translate(9.83699 7.98356) scale(13.2715)">
      <stop/>
      <stop offset="0.1" stop-color="#120707"/>
      <stop offset="0.31" stop-color="#411A1A"/>
      <stop offset="0.6" stop-color="#8D3838"/>
      <stop offset="0.96" stop-color="#F46161"/>
      <stop offset="1" stop-color="#FF6666"/>
    </radialGradient>
    <radialGradient id="paint5_radial_56_27667" cx="0" cy="0" r="1" gradientUnits="userSpaceOnUse" gradientTransform="translate(9.85763 4.83946) scale(9.39503 9.39503)">
      <stop/>
      <stop offset="1" stop-color="#FF6666"/>
    </radialGradient>
    <radialGradient id="paint6_radial_56_27667" cx="0" cy="0" r="1" gradientUnits="userSpaceOnUse" gradientTransform="translate(11.3389 4.99268) scale(4.9848)">
      <stop/>
      <stop offset="1" stop-color="#FFADAD"/>
    </radialGradient>
    <radialGradient id="paint7_radial_56_27667" cx="0" cy="0" r="1" gradientUnits="userSpaceOnUse" gradientTransform="translate(3.0853 7.74494) scale(10.201)">
      <stop/>
      <stop offset="0.1" stop-color="#120707"/>
      <stop offset="0.31" stop-color="#411A1A"/>
      <stop offset="0.6" stop-color="#8D3838"/>
      <stop offset="0.96" stop-color="#F46161"/>
      <stop offset="1" stop-color="#FF6666"/>
    </radialGradient>
    <radialGradient id="paint8_radial_56_27667" cx="0" cy="0" r="1" gradientUnits="userSpaceOnUse" gradientTransform="translate(3.28882 4.38482) scale(7.13999 7.14)">
      <stop/>
      <stop offset="1" stop-color="#FF6666"/>
    </radialGradient>
    <radialGradient id="paint9_radial_56_27667" cx="0" cy="0" r="1" gradientUnits="userSpaceOnUse" gradientTransform="translate(4.73412 6.08945) scale(6.59327)">
      <stop/>
      <stop offset="1" stop-color="#FFADAD"/>
    </radialGradient>
  </defs>
</svg>