<svg width="80" height="49" viewBox="0 0 80 49" fill="none" xmlns="http://www.w3.org/2000/svg">
<g id="Level Icon" clip-path="url(#clip0_73_118609)">
<g id="Group">
<g id="layer1">
<path id="Vector" d="M54.1452 13.6417C54.1452 13.6417 78.1674 -0.286402 79.525 0.00449402C80.8825 0.29539 79.1576 15.4409 76.5035 18.52C73.8494 21.5992 58.9859 28.5254 58.9859 28.5254L54.1452 13.6417Z" fill="url(#paint0_linear_73_118609)"/>
<g id="Vector_2" style="mix-blend-mode:multiply" opacity="0.5">
<path d="M58.986 28.5255C58.986 28.5255 57.0955 21.9091 57.0767 20.9448C57.0578 19.979 75.4044 15.457 76.415 16.1843C77.4255 16.9115 74.3038 20.9928 69.9263 23.1468C65.5487 25.3009 58.986 28.5255 58.986 28.5255Z" fill="#AB0081"/>
</g>
<g id="Vector_3" style="mix-blend-mode:soft-light" opacity="0.5">
<path d="M54.9612 13.7509C54.2149 14.4476 56.853 19.9586 57.1434 20.296C57.4338 20.6349 72.9695 16.1231 74.7844 15.0846C76.5993 14.0461 79.1213 3.84732 79.1794 1.94486C79.2375 0.0423955 58.9975 9.98232 54.9597 13.7509H54.9612Z" fill="#FFFFEA"/>
</g>
<path id="Vector_4" opacity="0.5" d="M72.6893 15.918C72.6065 15.31 77.0974 9.95172 77.3819 9.68555C77.668 9.41938 76.8229 16.2613 76.415 16.1842C76.007 16.1071 72.775 16.5609 72.6893 15.918Z" fill="#FFE577"/>
<path id="Vector_5" d="M56.7921 20.4021C56.7921 20.4021 77.6665 16.7179 78.6117 17.3986C79.5569 18.0808 74.9862 30.0191 72.3451 31.6976C69.7041 33.3761 57.1565 34.2604 57.1565 34.2604L56.7921 20.4021Z" fill="url(#paint1_linear_73_118609)"/>
<g id="Vector_6" style="mix-blend-mode:multiply" opacity="0.5">
<path d="M57.1565 34.2605C57.1565 34.2605 57.1884 28.1851 57.3844 27.3823C57.5805 26.5794 72.1942 28.812 72.788 29.74C73.3804 30.6694 70.1745 33.0227 66.4547 33.3762C62.7348 33.7296 57.1579 34.259 57.1579 34.259L57.1565 34.2605Z" fill="#AB0081"/>
</g>
<g id="Vector_7" style="mix-blend-mode:soft-light" opacity="0.5">
<path d="M57.3743 20.7571C56.6686 21.0887 57.4324 26.495 57.5746 26.8688C57.7169 27.2426 70.2413 28.5706 71.8152 28.3029C73.3891 28.0353 77.4792 20.4386 77.9351 18.8866C78.391 17.3347 61.1929 18.9594 57.3743 20.7556V20.7571Z" fill="#FFFFEA"/>
</g>
<path id="Vector_8" d="M57.4411 27.9873C57.4411 27.9873 73.2889 30.4512 73.7608 31.2773C74.2341 32.1035 67.5422 40.9365 65.1857 41.6449C62.8292 42.3547 53.6893 39.7511 53.6893 39.7511L57.4411 27.9873Z" fill="url(#paint2_linear_73_118609)"/>
<g id="Vector_9" style="mix-blend-mode:multiply" opacity="0.5">
<path d="M53.6893 39.7525C53.6893 39.7525 55.4693 34.6473 55.841 34.0233C56.2113 33.3994 65.9145 39.1751 66.0655 40.1162C66.2165 41.0558 63.2648 42.183 60.5279 41.4892C57.791 40.7954 53.6893 39.754 53.6893 39.754V39.7525Z" fill="#AB0081"/>
</g>
<g id="Vector_10" style="mix-blend-mode:soft-light" opacity="0.5">
<path d="M57.7503 28.4426C57.155 28.5342 56.1314 33.2889 56.1242 33.6424C56.1169 33.9958 64.6005 38.4523 65.7926 38.6472C66.9846 38.8421 72.078 33.5362 72.8504 32.3522C73.6228 31.1683 60.9736 27.9495 57.7503 28.4441V28.4426Z" fill="#FFFFEA"/>
</g>
<path id="Vector_11" opacity="0.5" d="M61.9813 36.9571C61.5413 36.7345 68.6282 36.8014 68.6282 36.8014C68.6282 36.8014 66.7291 38.3243 65.7926 38.6472C64.8546 38.9686 61.9813 36.9585 61.9813 36.9585V36.9571Z" fill="#FFE577"/>
<path id="Vector_12" opacity="0.5" d="M68.1259 28.1866C67.7179 27.6296 75.7485 23.3025 75.7485 23.3025C75.7485 23.3025 72.9811 28.0354 72.1085 28.1866C71.2345 28.3379 68.1259 28.1866 68.1259 28.1866Z" fill="#FFE577"/>
<g id="Vector_13" style="mix-blend-mode:multiply" opacity="0.33">
<path d="M54.9612 13.7508C54.9612 13.7508 60.4872 9.58368 62.851 10.0608C65.2147 10.5393 60.9475 18.824 57.1434 20.2959C57.1434 20.2959 56.4683 17.4553 54.9612 13.7508Z" fill="#FF8D81"/>
</g>
<g id="Vector_14" style="mix-blend-mode:multiply" opacity="0.33">
<path d="M57.0767 20.9448C57.0767 20.9448 59.9239 19.6561 60.5424 21.2066C61.1609 22.7571 57.6865 27.2121 57.6865 27.2121C57.6865 27.2121 57.8868 23.016 57.0767 20.9448Z" fill="#FF8D81"/>
</g>
<g id="Vector_15" style="mix-blend-mode:multiply" opacity="0.33">
<path d="M56.7906 34.1426C56.7906 34.1426 59.5043 30.5994 59.2444 29.5624C58.9845 28.5254 57.6647 28.0745 57.6647 28.0745C57.6647 28.0745 57.309 32.0932 56.7906 34.1426Z" fill="#FF8D81"/>
</g>
<path id="Vector_16" d="M25.8543 13.6417C25.8543 13.6417 1.83212 -0.286402 0.47456 0.00449402C-0.882996 0.29539 0.841899 15.4409 3.49603 18.52C6.15016 21.5992 21.0136 28.5254 21.0136 28.5254L25.8543 13.6417Z" fill="url(#paint3_linear_73_118609)"/>
<g id="Vector_17" style="mix-blend-mode:multiply" opacity="0.5">
<path d="M21.0135 28.5255C21.0135 28.5255 22.904 21.9091 22.9228 20.9447C22.9417 19.9804 4.59511 15.457 3.58456 16.1842C2.57402 16.9115 5.69567 20.9927 10.0732 23.1468C14.4508 25.3009 21.0135 28.5255 21.0135 28.5255Z" fill="#AB0081"/>
</g>
<g id="Vector_18" style="mix-blend-mode:soft-light" opacity="0.5">
<path d="M25.0398 13.7509C25.7861 14.4476 23.1479 19.9586 22.8575 20.296C22.5671 20.6349 7.03147 16.1231 5.21655 15.0846C3.40164 14.0461 0.878179 3.84732 0.820102 1.94486C0.762024 0.0423955 21.002 9.98232 25.0398 13.7509Z" fill="#FFFFEA"/>
</g>
<path id="Vector_19" opacity="0.5" d="M7.31167 15.918C7.39443 15.31 2.9036 9.95172 2.61903 9.68555C2.333 9.41938 3.17802 16.2613 3.58601 16.1842C3.99401 16.1071 7.22601 16.5609 7.31167 15.918Z" fill="#FFE577"/>
<path id="Vector_20" d="M23.2074 20.4021C23.2074 20.4021 2.333 16.7179 1.38779 17.3986C0.442584 18.0808 5.01327 30.0191 7.65433 31.6976C10.2954 33.3761 22.843 34.2604 22.843 34.2604L23.2074 20.4021Z" fill="url(#paint4_linear_73_118609)"/>
<g id="Vector_21" style="mix-blend-mode:multiply" opacity="0.5">
<path d="M22.843 34.2605C22.843 34.2605 22.8111 28.1851 22.615 27.3823C22.419 26.5794 7.80534 28.812 7.2115 29.74C6.61911 30.6694 9.82498 33.0227 13.5448 33.3762C17.2647 33.7296 22.8415 34.259 22.8415 34.259L22.843 34.2605Z" fill="#AB0081"/>
</g>
<g id="Vector_22" style="mix-blend-mode:soft-light" opacity="0.5">
<path d="M22.6252 20.7571C23.3309 21.0887 22.5671 26.495 22.4249 26.8688C22.2826 27.2426 9.7582 28.5706 8.1843 28.3029C6.61041 28.0353 2.52032 20.4386 2.06441 18.8866C1.6085 17.3347 18.8066 18.9594 22.6252 20.7556V20.7571Z" fill="#FFFFEA"/>
</g>
<path id="Vector_23" d="M22.5599 27.9873C22.5599 27.9873 6.71204 30.4512 6.24016 31.2773C5.76683 32.1035 12.4588 40.9365 14.8153 41.6449C17.1718 42.3547 26.3117 39.7511 26.3117 39.7511L22.5599 27.9873Z" fill="url(#paint5_linear_73_118609)"/>
<g id="Vector_24" style="mix-blend-mode:multiply" opacity="0.5">
<path d="M26.3102 39.7525C26.3102 39.7525 24.5301 34.6473 24.1584 34.0233C23.7882 33.3994 14.0849 39.1751 13.9339 40.1162C13.7829 41.0558 16.7347 42.183 19.4716 41.4892C22.2085 40.7954 26.3102 39.754 26.3102 39.754V39.7525Z" fill="#AB0081"/>
</g>
<g id="Vector_25" style="mix-blend-mode:soft-light" opacity="0.5">
<path d="M22.2492 28.4426C22.8445 28.5342 23.8681 33.2889 23.8753 33.6424C23.8826 33.9958 15.399 38.4523 14.2069 38.6472C13.0149 38.8421 7.92151 33.5362 7.14908 32.3522C6.37665 31.1683 19.0259 27.9495 22.2492 28.4441V28.4426Z" fill="#FFFFEA"/>
</g>
<path id="Vector_26" opacity="0.5" d="M18.0182 36.9571C18.4582 36.7345 11.3713 36.8014 11.3713 36.8014C11.3713 36.8014 13.2704 38.3243 14.2069 38.6472C15.1448 38.9686 18.0182 36.9585 18.0182 36.9585V36.9571Z" fill="#FFE577"/>
<path id="Vector_27" opacity="0.5" d="M11.8737 28.1866C12.2816 27.6296 4.25101 23.3025 4.25101 23.3025C4.25101 23.3025 7.01839 28.0354 7.891 28.1866C8.76506 28.3379 11.8737 28.1866 11.8737 28.1866Z" fill="#FFE577"/>
<g id="Vector_28" style="mix-blend-mode:multiply" opacity="0.33">
<path d="M25.0398 13.7508C25.0398 13.7508 19.5137 9.58368 17.15 10.0608C14.7862 10.5393 19.0534 18.824 22.8575 20.2959C22.8575 20.2959 23.5327 17.4553 25.0398 13.7508Z" fill="#FF8D81"/>
</g>
<g id="Vector_29" style="mix-blend-mode:multiply" opacity="0.33">
<path d="M22.9229 20.9448C22.9229 20.9448 20.0756 19.6561 19.4571 21.2066C18.8386 22.7571 22.313 27.2121 22.313 27.2121C22.313 27.2121 22.1127 23.016 22.9229 20.9448Z" fill="#FF8D81"/>
</g>
<path id="Vector_30" d="M23.4978 11.969C12.3862 24.0121 16.8378 51.2604 42.1508 48.8503C64.149 46.7559 65.6329 23.154 57.9493 12.6236C50.7506 2.75636 32.9731 1.69896 23.4978 11.969Z" fill="url(#paint6_linear_73_118609)"/>
<path id="Vector_31" d="M57.5689 38.6719L57.5616 38.6792C54.6737 43.1444 49.8083 46.5363 42.3439 47.2519C34.865 47.9602 29.2475 46.0592 25.3636 42.7415C25.3563 42.727 25.3418 42.7197 25.3345 42.7197C25.2895 42.6819 25.2445 42.6455 25.2009 42.6077C16.5765 35.072 16.7028 20.4909 24.0844 12.4927C33.2229 2.58622 50.1205 3.78616 57.3017 13.1196C61.5138 18.5913 62.8902 30.4512 57.5689 38.6719Z" fill="url(#paint7_linear_73_118609)"/>
<path id="Vector_32" d="M29.6511 16.3005C21.9646 23.826 24.9454 42.2936 41.5671 40.7445C55.6567 39.4311 56.3478 23.8536 52.2199 17.8816C47.6594 11.284 36.2066 9.88336 29.6511 16.3005Z" fill="url(#paint8_linear_73_118609)"/>
<path id="Vector_33" d="M31.5996 16.3034C23.945 22.3846 24.912 39.3628 40.0861 39.5242C52.9488 39.6609 55.0309 25.6398 51.8584 19.8538C48.352 13.4599 38.1275 11.1182 31.5996 16.3034Z" fill="url(#paint9_linear_73_118609)"/>
<g id="Vector_34" style="mix-blend-mode:multiply" opacity="0.5">
<path d="M25.9763 23.3009C27.9189 19.5949 33.0443 14.4402 40.3257 14.4402C47.6071 14.4402 54.0015 21.3374 54.331 24.2565C53.955 15.8292 46.7694 12.1479 39.8349 12.1479C32.9005 12.1479 26.7124 17.1223 25.9763 23.3024V23.3009Z" fill="#AB0081"/>
</g>
<g id="Vector_35" style="mix-blend-mode:soft-light" opacity="0.5">
<path d="M18.2796 27.5087C18.7602 29.9915 25.1196 32.8015 25.6264 32.8132C26.1331 32.8248 22.3813 23.0667 30.0852 15.659C37.7892 8.2499 49.6602 12.8941 53.171 19.3752C56.6817 25.8578 53.7677 32.7303 53.7198 33.5782C53.6733 34.4262 59.6292 31.2438 60.9257 28.4948C62.2223 25.7458 62.2267 5.32349 41.1722 5.32349C20.1177 5.32349 17.6582 24.2957 18.2796 27.5087Z" fill="#F6F4EA"/>
</g>
<g id="Vector_36" style="mix-blend-mode:soft-light" opacity="0.5">
<path d="M57.5616 38.6792C54.6737 43.1445 49.8083 46.5363 42.3439 47.2519C34.865 47.9602 29.2474 46.0592 25.3635 42.7416C26.3087 43.4644 31.3832 47.0425 39.7914 47.2214C48.9734 47.4075 57.2407 39.0065 57.5616 38.6792Z" fill="#F6F4EA"/>
</g>
<g id="Vector_37" style="mix-blend-mode:soft-light" opacity="0.8">
<path d="M44.5363 5.32343C39.5518 4.3722 46.8826 11.5442 51.6058 16.9811C56.3289 22.4194 61.0375 22.9125 61.0375 22.9125C61.0375 22.9125 62.6347 8.77636 44.5378 5.32197L44.5363 5.32343Z" fill="#FFFFEA"/>
</g>
<g id="Vector_38" style="mix-blend-mode:soft-light" opacity="0.8">
<path d="M22.615 39.8063C21.6016 37.405 27.8754 39.3962 30.5266 43.0396C33.1778 46.6831 24.8554 45.1166 22.615 39.8063Z" fill="#FFE052"/>
</g>
<g id="Vector_39" style="mix-blend-mode:multiply" opacity="0.33">
<path d="M35.8146 46.2919C31.1539 44.8956 37.6876 44.1538 46.479 39.5242C55.2705 34.8946 57.6502 36.3549 58.1845 36.4887C58.7188 36.6225 54.2062 43.9589 46.9988 45.5908C39.7914 47.2213 35.8131 46.2919 35.8131 46.2919H35.8146Z" fill="#FF8D81"/>
</g>
<path id="Vector_40" d="M33.0036 39.4223C33.0036 39.4223 34.0359 39.7263 38.4222 39.5256C42.8085 39.3234 46.5283 39.4979 46.7781 39.3685C47.0278 39.239 40.8019 42.7603 33.0036 39.4223Z" fill="#FFB551"/>
<g id="Vector_41" style="mix-blend-mode:multiply" opacity="0.3">
<path d="M58.4633 27.407C58.4575 28.9676 57.913 30.3029 57.1246 29.7691C56.1823 29.1291 54.9844 28.7087 55.1166 27.2703C55.1412 27.0186 55.1558 26.751 55.179 26.4819C55.2821 25.2224 55.4665 23.9468 56.6905 24.322C56.6905 24.322 58.17 24.6537 58.411 26.5285C58.4502 26.8208 58.4676 27.1205 58.4633 27.407Z" fill="#C9455B"/>
</g>
<g id="Vector_42" style="mix-blend-mode:multiply" opacity="0.5">
<path d="M58.4632 27.407L58.4298 27.5946C58.4298 27.5946 58.4255 26.6288 57.9797 25.8245C57.5354 25.0246 56.9227 24.402 56.1822 24.7424C55.4461 25.0856 55.1775 26.4834 55.1775 26.4834C55.2806 25.2238 55.465 23.9482 56.689 24.3235C56.689 24.3235 58.1685 24.6551 58.4095 26.5299C58.4487 26.8223 58.4661 27.1219 58.4618 27.4085L58.4632 27.407Z" fill="#C9455B"/>
</g>
<g id="Vector_43" style="mix-blend-mode:multiply" opacity="0.3">
<path d="M22.374 35.6728C22.5715 36.6648 22.3798 37.5884 21.7831 37.36C21.0702 37.0851 20.2165 36.9877 20.1192 36.0553C20.1032 35.8924 20.0785 35.7194 20.0597 35.5463C19.9667 34.7332 19.9261 33.8969 20.7914 33.9623C20.7914 33.9623 21.8238 33.9653 22.2259 35.1216C22.2898 35.3019 22.3392 35.4896 22.374 35.6714V35.6728Z" fill="#C9455B"/>
</g>
<g id="Vector_44" style="mix-blend-mode:multiply" opacity="0.5">
<path d="M22.374 35.6728L22.3769 35.7964C22.3769 35.7964 22.2492 35.1841 21.8484 34.7361C21.4477 34.2896 20.9584 33.9813 20.5068 34.3012C20.0597 34.6227 20.0597 35.5463 20.0597 35.5463C19.9667 34.7332 19.9261 33.8969 20.7914 33.9623C20.7914 33.9623 21.8237 33.9653 22.2259 35.1216C22.2898 35.3019 22.3392 35.4896 22.374 35.6714V35.6728Z" fill="#C9455B"/>
</g>
<path id="Vector_45" d="M26.1737 26.0381C25.4405 25.3284 23.8913 29.5536 25.7715 31.6903C27.6518 33.8269 27.7694 27.5813 26.1737 26.0381Z" fill="#C94027"/>
<g id="Vector_46" style="mix-blend-mode:multiply" opacity="0.5">
<path d="M24.9207 28.2548C24.761 30.8671 26.8619 30.838 27.0623 28.681C27.2627 26.524 25.8253 25.9495 25.6728 26.1502C25.5189 26.3509 24.9643 27.5596 24.9207 28.2548Z" fill="#AF5B66"/>
</g>
<path id="Vector_47" d="M26.0315 31.9378C25.2024 30.7611 27.1393 30.0702 27.2787 29.6019C27.4181 29.1335 27.1828 33.1013 26.0315 31.9378Z" fill="#FFB551"/>
<g id="Vector_48" style="mix-blend-mode:multiply" opacity="0.5">
<path d="M40.2705 13.1895C42.1972 13.1895 44.5828 19.5892 44.5828 19.5892C44.5828 19.5892 51.735 18.2772 52.2722 20.1302C53.3452 23.8377 48.8965 27.071 48.8965 27.071C48.8965 27.071 53.4091 32.4526 52.2722 34.0118C49.7792 37.4327 44.5828 34.5529 44.5828 34.5529C44.5828 34.5529 42.1972 40.3737 40.2705 40.3737C38.3438 40.3737 35.9583 34.5529 35.9583 34.5529C35.9583 34.5529 30.788 36.7724 28.1629 33.7151C26.907 32.2519 31.6461 27.071 31.6461 27.071C31.6461 27.071 26.9084 23.6413 28.2703 20.1302C28.9672 18.331 35.9597 19.5892 35.9597 19.5892C35.9597 19.5892 38.3453 13.1895 40.272 13.1895H40.2705Z" fill="#AB0081"/>
</g>
<path id="Vector_49" d="M50.617 28.8336C51.7031 30.4656 52.8123 32.5091 52.2766 33.4327C51.3096 35.1097 44.5828 33.9767 44.5828 33.9767C44.5828 33.9767 42.2016 40.372 40.2749 40.372C38.3482 40.372 35.9598 33.9767 35.9598 33.9767C35.9598 33.9767 29.233 35.1097 28.2732 33.4327C27.3063 31.763 31.6519 26.4934 31.6519 26.4934C31.6519 26.4934 27.3063 21.2238 28.2732 19.5541C28.4373 19.2632 28.7785 19.0624 29.233 18.9199C31.3688 18.2421 35.9598 19.0086 35.9598 19.0086C35.9598 19.0086 38.3482 12.6133 40.2749 12.6133C42.2016 12.6133 44.5828 19.0086 44.5828 19.0086C44.5828 19.0086 51.3096 17.8829 52.2766 19.5526C53.2363 21.2224 48.8979 26.4919 48.8979 26.4919C48.8979 26.4919 49.7531 27.5275 50.617 28.8322V28.8336Z" fill="url(#paint10_linear_73_118609)"/>
<g id="Vector_50" style="mix-blend-mode:soft-light" opacity="0.8">
<path d="M48.8979 26.4922C48.8979 26.4922 49.7531 27.5277 50.617 28.8324C49.56 29.2048 48.2954 29.3168 46.7854 29.0928C35.4298 27.3779 27.2888 19.4539 29.2315 18.9172C31.3673 18.2394 35.9583 19.0059 35.9583 19.0059C35.9583 19.0059 38.3467 12.6106 40.2734 12.6106C42.2002 12.6106 44.5813 19.0059 44.5813 19.0059C44.5813 19.0059 51.3081 17.8802 52.2751 19.5499C53.2348 21.2197 48.8965 26.4892 48.8965 26.4892L48.8979 26.4922Z" fill="#FFFFEA"/>
</g>
<g id="Vector_51" style="mix-blend-mode:multiply" opacity="0.33">
<path d="M29.8239 32.9573C29.3404 31.3094 30.3872 27.9757 32.1499 27.2121C33.9125 26.4485 49.4206 30.0483 50.6896 31.1087C51.9586 32.169 52.7905 34.3347 49.9868 34.3071C47.1817 34.2794 44.2749 33.7165 44.2749 33.7165C44.2749 33.7165 42.5312 39.1839 40.5478 39.5243C38.5645 39.8646 36.4505 33.6322 36.4505 33.6322C36.4505 33.6322 30.3132 34.6227 29.8239 32.9573Z" fill="#FF8D81"/>
</g>
<g id="Vector_52" style="mix-blend-mode:soft-light">
<path d="M37.6019 24.255C36.9209 25.1669 38.8026 26.5269 40.1529 25.9582C41.5032 25.388 39.0117 22.3685 37.6019 24.255Z" fill="#FFFFEA"/>
</g>
<path id="Vector_53" d="M14.8458 17.9803C15.7256 17.4654 12.0842 14.8285 9.52297 16.0633C6.96031 17.2982 12.9321 19.1017 14.8458 17.9803Z" fill="#C94027"/>
<g id="Vector_54" style="mix-blend-mode:multiply" opacity="0.5">
<path d="M13.0541 16.1726C10.5858 15.3115 10.0471 17.3464 12.0653 18.123C14.0835 18.8997 15.0243 17.6692 14.8733 17.4671C14.7223 17.2649 13.7103 16.4024 13.0541 16.1726Z" fill="#AF5B66"/>
</g>
<path id="Vector_55" d="M9.21518 16.2466C10.5698 15.7652 10.7107 17.8203 11.123 18.0807C11.5354 18.3411 7.78648 17.0407 9.21518 16.2466Z" fill="#FFA61F"/>
</g>
</g>
</g>
<defs>
<linearGradient id="paint0_linear_73_118609" x1="72.6755" y1="23.6052" x2="65.925" y2="4.80265" gradientUnits="userSpaceOnUse">
<stop offset="0.01" stop-color="#FE686A"/>
<stop offset="0.25" stop-color="#EB7A1D"/>
<stop offset="0.34" stop-color="#F38A10"/>
<stop offset="0.44" stop-color="#FA9607"/>
<stop offset="0.59" stop-color="#FD9D02"/>
<stop offset="1" stop-color="#FF9F01"/>
</linearGradient>
<linearGradient id="paint1_linear_73_118609" x1="67.4731" y1="33.7529" x2="66.7528" y2="17.7463" gradientUnits="userSpaceOnUse">
<stop offset="0.01" stop-color="#FE686A"/>
<stop offset="0.25" stop-color="#EB7A1D"/>
<stop offset="0.34" stop-color="#F38A10"/>
<stop offset="0.44" stop-color="#FA9607"/>
<stop offset="0.59" stop-color="#FD9D02"/>
<stop offset="1" stop-color="#FF9F01"/>
</linearGradient>
<linearGradient id="paint2_linear_73_118609" x1="60.5091" y1="41.4628" x2="63.6483" y2="28.6104" gradientUnits="userSpaceOnUse">
<stop offset="0.01" stop-color="#FE686A"/>
<stop offset="0.25" stop-color="#EB7A1D"/>
<stop offset="0.34" stop-color="#F38A10"/>
<stop offset="0.44" stop-color="#FA9607"/>
<stop offset="0.59" stop-color="#FD9D02"/>
<stop offset="1" stop-color="#FF9F01"/>
</linearGradient>
<linearGradient id="paint3_linear_73_118609" x1="7.32724" y1="23.6221" x2="14.0777" y2="4.81964" gradientUnits="userSpaceOnUse">
<stop offset="0.01" stop-color="#FE686A"/>
<stop offset="0.25" stop-color="#EB7A1D"/>
<stop offset="0.34" stop-color="#F38A10"/>
<stop offset="0.44" stop-color="#FA9607"/>
<stop offset="0.59" stop-color="#FD9D02"/>
<stop offset="1" stop-color="#FF9F01"/>
</linearGradient>
<linearGradient id="paint4_linear_73_118609" x1="11.7105" y1="33.9602" x2="12.4308" y2="17.9536" gradientUnits="userSpaceOnUse">
<stop offset="0.01" stop-color="#FE686A"/>
<stop offset="0.25" stop-color="#EB7A1D"/>
<stop offset="0.34" stop-color="#F38A10"/>
<stop offset="0.44" stop-color="#FA9607"/>
<stop offset="0.59" stop-color="#FD9D02"/>
<stop offset="1" stop-color="#FF9F01"/>
</linearGradient>
<linearGradient id="paint5_linear_73_118609" x1="19.9074" y1="41.1912" x2="16.7674" y2="28.3375" gradientUnits="userSpaceOnUse">
<stop offset="0.01" stop-color="#FE686A"/>
<stop offset="0.25" stop-color="#EB7A1D"/>
<stop offset="0.34" stop-color="#F38A10"/>
<stop offset="0.44" stop-color="#FA9607"/>
<stop offset="0.59" stop-color="#FD9D02"/>
<stop offset="1" stop-color="#FF9F01"/>
</linearGradient>
<linearGradient id="paint6_linear_73_118609" x1="39.9656" y1="49.0001" x2="39.9656" y2="4.7301" gradientUnits="userSpaceOnUse">
<stop offset="0.01" stop-color="#D12C2E"/>
<stop offset="0.35" stop-color="#EB7A1D"/>
<stop offset="0.42" stop-color="#F38A1D"/>
<stop offset="0.51" stop-color="#FA961E"/>
<stop offset="0.64" stop-color="#FD9D1E"/>
<stop offset="1" stop-color="#FF9F1F"/>
</linearGradient>
<linearGradient id="paint7_linear_73_118609" x1="39.835" y1="47.3988" x2="39.835" y2="5.57518" gradientUnits="userSpaceOnUse">
<stop offset="0.01" stop-color="#FE686A"/>
<stop offset="0.35" stop-color="#EB7A1D"/>
<stop offset="0.42" stop-color="#F38A1D"/>
<stop offset="0.51" stop-color="#FA961E"/>
<stop offset="0.64" stop-color="#FD9D1E"/>
<stop offset="1" stop-color="#FF9F1F"/>
</linearGradient>
<linearGradient id="paint8_linear_73_118609" x1="41.5182" y1="40.7486" x2="38.5544" y2="12.2309" gradientUnits="userSpaceOnUse">
<stop offset="0.01" stop-color="#FEA740"/>
<stop offset="0.35" stop-color="#E8771E"/>
<stop offset="0.41" stop-color="#D46228"/>
<stop offset="0.48" stop-color="#C45130"/>
<stop offset="0.56" stop-color="#B94536"/>
<stop offset="0.68" stop-color="#B23E3A"/>
<stop offset="1" stop-color="#B13D3B"/>
</linearGradient>
<linearGradient id="paint9_linear_73_118609" x1="40.0373" y1="39.5282" x2="40.0402" y2="13.4631" gradientUnits="userSpaceOnUse">
<stop offset="0.01" stop-color="#FE5433"/>
<stop offset="0.35" stop-color="#EB7A1D"/>
<stop offset="0.42" stop-color="#F38A1D"/>
<stop offset="0.51" stop-color="#FA961E"/>
<stop offset="0.64" stop-color="#FD9D1E"/>
<stop offset="1" stop-color="#FF9F1F"/>
</linearGradient>
<linearGradient id="paint10_linear_73_118609" x1="40.272" y1="40.372" x2="40.272" y2="12.6133" gradientUnits="userSpaceOnUse">
<stop offset="0.01" stop-color="#FE816A"/>
<stop offset="0.35" stop-color="#FA8C1D"/>
<stop offset="0.4" stop-color="#FB9C1D"/>
<stop offset="0.46" stop-color="#FDAD1E"/>
<stop offset="0.55" stop-color="#FEB91E"/>
<stop offset="0.67" stop-color="#FEC01E"/>
<stop offset="1" stop-color="#FFC21F"/>
</linearGradient>
<clipPath id="clip0_73_118609">
<rect width="80" height="49" fill="white"/>
</clipPath>
</defs>
</svg>
