<svg xmlns="http://www.w3.org/2000/svg" width="16" height="20" viewBox="0 0 16 20" fill="none">
  <g clip-path="url(#clip0_56_27679)">
    <path d="M0.950291 11.0439C-0.536711 8.14917 3.02973 3.72478 6.22808 1.90442C6.33382 2.57486 6.56888 3.30884 6.67461 3.97927C6.70988 4.20372 6.77845 4.46611 7.03309 4.55412C7.19791 4.61094 7.38764 4.57299 7.56202 4.53411C9.27274 4.15325 10.9835 3.77238 12.6942 3.39152C11.9416 4.06913 11.3045 4.83107 10.8091 5.66962C12.3146 5.51296 13.8357 5.4713 15.3458 5.54562C14.2389 6.18201 13.1324 6.81834 12.0254 7.45473C11.8578 7.55129 11.6705 7.67902 11.6854 7.84456C11.6959 7.95848 11.802 8.04798 11.9018 8.12724C13.0294 9.02016 14.157 9.91308 15.2842 10.8061C13.0966 11.1302 10.9092 11.4545 8.6747 11.7996C9.48673 13.0374 10.1397 14.3464 10.6191 15.6983C9.13079 15.3623 7.64252 15.0263 6.15419 14.69C6.27057 15.5454 6.17817 16.3432 6.50327 17.256C4.12042 15.3146 2.16352 13.4069 0.949804 11.0437L0.950291 11.0439Z" fill="#FF7405"/>
    <path d="M0.477149 8.60977C0.720114 7.30204 1.28021 6.00083 2.12897 4.79054C2.11435 5.26952 2.13463 5.74608 2.18937 6.21771C2.20713 6.36854 2.2497 6.54163 2.43373 6.5984C2.65449 6.66602 2.91246 6.52266 3.10745 6.39265C4.5422 5.43576 6.11572 4.59511 7.7825 3.89463C6.86035 4.80651 6.19222 5.84723 5.83944 6.92064C7.80574 6.40328 9.87263 6.48193 11.871 6.56777C10.2098 7.09404 8.60289 7.73966 7.08346 8.49154C9.21485 8.34355 11.1015 9.12701 12.845 9.88646C10.5719 9.99243 8.28379 10.3453 6.10031 10.8969C6.91199 12.0883 7.72415 13.2798 8.53583 14.4712L4.67179 12.0234C4.67128 13.1833 4.67072 14.3429 4.67021 15.5028C3.74217 14.0754 2.60069 12.7956 1.22594 11.2209C0.584416 10.486 0.304591 9.53211 0.475953 8.61062L0.477149 8.60977Z" fill="#FBB03B"/>
    <path d="M0.870226 9.37377C1.85258 7.95411 3.38518 6.70701 5.22486 5.85187C4.8627 6.549 4.62114 7.27173 4.50749 7.99489C5.8254 7.65115 7.16508 7.3719 8.51478 7.15913C7.69241 7.52543 6.92688 7.97057 6.24611 8.4775C6.07679 8.60344 5.89851 8.76582 5.94468 8.92601C5.9867 9.07237 6.19606 9.14129 6.38368 9.19292C7.10218 9.39004 7.82024 9.58724 8.53874 9.78436C7.49757 9.92463 6.46995 10.1964 5.51627 10.5842C5.88122 11.2675 6.24623 11.9511 6.61119 12.6344C6.0083 11.9922 5.14864 11.4924 4.15017 11.2029C4.15198 12.0941 4.15335 12.9854 4.15521 13.8769C3.12695 12.8723 2.09869 11.8676 0.998515 10.8346C0.575156 10.437 0.527847 9.87034 0.870768 9.37432L0.870226 9.37377Z" fill="#FCEE21"/>
    <path d="M0.74489 9.76474C1.13876 8.96553 1.79205 8.21698 2.63384 7.6088C2.64028 8.11423 2.56878 8.62653 2.42115 9.13278C3.00247 8.73175 3.65527 8.388 4.35218 8.11654C4.05348 8.5523 3.65661 8.95766 3.18522 9.30885C4.02782 9.47893 4.87042 9.649 5.71297 9.81876C4.68699 10.0243 3.64259 10.1483 2.60475 10.1878C3.10999 10.6199 3.52157 11.1132 3.82259 11.6475C3.08814 11.5087 2.41154 11.2507 1.85102 10.8954C2.05514 11.2917 2.25926 11.688 2.46343 12.0846C1.79632 11.6705 1.24993 11.1546 0.815431 10.577C0.635568 10.3381 0.608351 10.0431 0.745323 9.76466L0.74489 9.76474Z" fill="white"/>
  </g>
  <defs>
    <clipPath id="clip0_56_27679">
      <rect width="16" height="20" fill="white" transform="matrix(-1 0 0 1 16 0)"/>
    </clipPath>
  </defs>
</svg>