<svg xmlns="http://www.w3.org/2000/svg" width="18" height="14" viewBox="0 0 18 14" fill="none">
  <g filter="url(#filter0_d_56_29297)">
    <path d="M9.9413 2.37659C9.42067 1.87447 8.57517 1.87447 8.05454 2.37659L1.39047 8.80373C0.869842 9.30585 0.869842 10.1213 1.39047 10.6234C1.9111 11.1255 2.75661 11.1255 3.27724 10.6234L9 8.10411L14.7228 10.6194C15.2434 11.1215 16.0889 11.1215 16.6095 10.6194C17.1302 10.1173 17.1302 9.30183 16.6095 8.79971L9.94546 2.37257L9.9413 2.37659Z" fill="white"/>
    <path d="M10.2926 2.01268L9.94543 1.67789L9.89432 1.72719C9.19829 1.34732 8.30143 1.44382 7.70744 2.0167L1.04337 8.44383C0.318874 9.14258 0.318874 10.2846 1.04337 10.9833C1.73457 11.6499 2.83586 11.6715 3.55361 11.0481L9.00016 8.65034L14.4465 11.0441C15.1643 11.6675 16.2655 11.6459 16.9566 10.9793C17.6811 10.2805 17.6811 9.13856 16.9566 8.43982L10.2926 2.01268Z" stroke="black"/>
  </g>
  <defs>
    <filter id="filter0_d_56_29297" x="0" y="0.983154" width="18" height="13.0168" filterUnits="userSpaceOnUse" color-interpolation-filters="sRGB">
      <feFlood flood-opacity="0" result="BackgroundImageFix"/>
      <feColorMatrix in="SourceAlpha" type="matrix" values="0 0 0 0 0 0 0 0 0 0 0 0 0 0 0 0 0 0 127 0" result="hardAlpha"/>
      <feOffset dy="2"/>
      <feComposite in2="hardAlpha" operator="out"/>
      <feColorMatrix type="matrix" values="0 0 0 0 0 0 0 0 0 0 0 0 0 0 0 0 0 0 1 0"/>
      <feBlend mode="normal" in2="BackgroundImageFix" result="effect1_dropShadow_56_29297"/>
      <feBlend mode="normal" in="SourceGraphic" in2="effect1_dropShadow_56_29297" result="shape"/>
    </filter>
  </defs>
</svg>